<svg id="Group_65" data-name="Group 65" xmlns="http://www.w3.org/2000/svg" xmlns:xlink="http://www.w3.org/1999/xlink" width="77.086" height="57.489" viewBox="0 0 77.086 57.489">
  <defs>
    <clipPath id="clip-path">
      <rect id="Rectangle_70" data-name="Rectangle 70" width="77.086" height="57.489" fill="#1aa9a0"/>
    </clipPath>
  </defs>
  <g id="Group_64" data-name="Group 64" clip-path="url(#clip-path)">
    <path id="Path_81" data-name="Path 81" d="M41.217,40.255a7.914,7.914,0,0,0-5.27-7.633c-2.833-1.114-5.672-2.216-8.5-3.336-1.6-.634-1.638-.706-1.636-2.359a.45.45,0,0,1,0-.171,2.93,2.93,0,0,1,.344-.725,14.968,14.968,0,0,0,1.6-1.886,34.95,34.95,0,0,0,1.469-3.294c.032-.1.2-.125.373-.152A3.758,3.758,0,0,0,32.31,15.02a3.918,3.918,0,0,1-.583-2.372c.017-.482.007-.965,0-1.446A10.769,10.769,0,0,0,29.3,4.239,10.609,10.609,0,0,0,18.147.327a10.538,10.538,0,0,0-8.406,8.7,33.368,33.368,0,0,0-.261,4.666,1.561,1.561,0,0,1-.294.821,3.861,3.861,0,0,0,2.939,6.25,1.406,1.406,0,0,1,.067.183A8.513,8.513,0,0,0,15.2,26.141a.646.646,0,0,1,.206.38c.213,1.659-.073,2.141-1.619,2.768-.107.044-.215.084-.322.126Q9.4,31.008,5.334,32.6A7.945,7.945,0,0,0,.009,40.313C-.007,45.67,0,51.027,0,56.385a.947.947,0,1,0,1.894,0c-.018-2.874-.045-11.552,0-16.254A5.938,5.938,0,0,1,5.969,34.37c1.391-.566,2.8-1.105,4.2-1.654.151-.059.312-.1.541-.167-.313.609-.6,1.129-.856,1.667a12.251,12.251,0,0,0-1.034,5.753.8.8,0,0,1-.44.833,2.431,2.431,0,0,0-1.023,2.775,2.5,2.5,0,0,0,4.814-.055A2.476,2.476,0,0,0,11.1,40.755a.89.89,0,0,1-.4-.543,10.388,10.388,0,0,1,2.37-7.643,6.7,6.7,0,0,1,2.158-1.841l3.951,3.516c-1.513,1.321-2.981,2.573-4.405,3.874a1.7,1.7,0,0,0-.554,1.065c-.052,2.1-.026,4.207-.023,6.311a1.613,1.613,0,0,0,.041.344.773.773,0,0,0,.85.7,1.67,1.67,0,0,0,.879-.6c.135-.158.1-.48.1-.728.007-1.717.019-3.435-.006-5.154a1.208,1.208,0,0,1,.467-1.033c2.845-2.466,5.669-4.955,8.51-7.423a10.022,10.022,0,0,1,1.2-.751,9.159,9.159,0,0,1,3.432,4.111c-.2.029-.352.051-.5.074a2.869,2.869,0,0,0-2.618,2.9q-.065,2.256,0,4.516A2.854,2.854,0,0,0,29.1,45.336c.69.083,1.149-.187,1.24-.73.1-.563-.213-.939-.907-1.1-.759-.18-1.012-.463-1.021-1.237-.016-1.39-.019-2.779,0-4.169a1.083,1.083,0,0,1,1.224-1.213q1.419-.028,2.837,0c.888.016,1.239.39,1.243,1.3.006,1.294,0,2.586,0,3.88,0,1.04-.142,1.218-1.149,1.477a.9.9,0,0,0-.769,1.034.932.932,0,0,0,1.04.791,2.807,2.807,0,0,0,2.715-2.655c.057-1.677.051-3.358,0-5.035a2.741,2.741,0,0,0-2.321-2.588c-.377-.067-.77-.044-1.152-.09-.152-.019-.377-.074-.432-.183-.371-.725-.706-1.468-1.094-2.292,1.555.611,3.037,1.194,4.52,1.774a6.2,6.2,0,0,1,4.268,6.221c0,4.485,0,13.044,0,15.877a.937.937,0,0,0,1.875,0c0-5.381.011-10.76-.011-16.139M10.366,42.9c-.046.251-.334.457-.512.683l-.267-.01a2.326,2.326,0,0,1-.435-.727c-.062-.383.236-.606.6-.606a.555.555,0,0,1,.612.66M31,16.9a1.963,1.963,0,0,1-1.825,1.951V14.985A1.951,1.951,0,0,1,31,16.9M12.037,18.833a1.92,1.92,0,0,1,0-3.835Zm-.029-5.76-.558.039C11,9.528,11.949,6.145,15,3.805a9.086,9.086,0,0,1,10.316-.614c3.645,2.227,4.894,5.795,4.487,9.893h-.616c-.006-.805-.586-1.256-1.062-1.773q-.962-1.042-1.934-2.076C25.5,8.5,25.2,8.47,24.35,9.011a17.874,17.874,0,0,1-9.194,2.92,13.036,13.036,0,0,1-1.445-.07c-1.217-.1-1.406.03-1.7,1.211M23.924,29.857a.533.533,0,0,1-.162.348c-1.031.923-2.073,1.834-3.154,2.784-1.081-.954-2.135-1.878-3.18-2.816a.549.549,0,0,1-.133-.36c-.012-.767-.006-1.536-.006-2.393a9.2,9.2,0,0,0,6.642-.026c0,.894.007,1.678-.007,2.463m-2.75-3.719A6.582,6.582,0,0,1,14.2,21.274a7.737,7.737,0,0,1-.226-1.712c-.029-1.813-.013-3.626-.01-5.44A2.916,2.916,0,0,1,14,13.8,19.5,19.5,0,0,0,25.07,10.787c.682.73,1.346,1.427,1.989,2.145a.837.837,0,0,1,.18.518c0,2.179.046,4.36-.029,6.538a6.484,6.484,0,0,1-6.036,6.15m12,20.908c-.619.012-.921.467-.921,1.409,0,2.12-.011,6.092-.021,7.919a.953.953,0,1,0,1.906.006c0-1.824,0-5.814,0-7.9,0-.96-.326-1.445-.963-1.433M16,48.159a.9.9,0,0,0-1.765.078,4.409,4.409,0,0,0-.039.692c0,1.957,0,5.714,0,7.463a.94.94,0,0,0,1.88,0c0-1.752,0-5.517,0-7.49A3.114,3.114,0,0,0,16,48.159M8.06,47.048c-.638-.022-.975.466-.975,1.422,0,2.091,0,6.1,0,7.921a.943.943,0,0,0,1.886,0c0-1.825,0-5.846,0-7.924,0-.95-.29-1.4-.911-1.419" transform="translate(0 0)" fill="#1aa9a0"/>
    <path id="Path_82" data-name="Path 82" d="M306.24,13.121c.808.175,1.63.3,2.423.531a12.856,12.856,0,0,1,9.3,12.2c.042,5.591.014,11.183.01,16.775a12.623,12.623,0,0,1-1.728,6.416c-.045.078-.087.158-.124.24a.742.742,0,0,0-.018.163c.878.446,1.765.922,2.673,1.355a6.507,6.507,0,0,1,3.972,6.456c-.04,3.311-.009,6.623-.009,9.935,0,.145,0,.29,0,.434-.022.567-.311.88-.811.882a.772.772,0,0,1-.811-.874c-.01-.977,0-1.954,0-2.931,0-2.606,0-5.212,0-7.818a4.659,4.659,0,0,0-2.778-4.474c-1.293-.639-2.584-1.279-3.93-1.945v5.395a14.476,14.476,0,0,1,1.622,1.139,3.051,3.051,0,0,1,.944,2.3q.022,3.746,0,7.492a1.891,1.891,0,0,1-1.486,1.893.859.859,0,0,1-1.088-.554.849.849,0,0,1,.589-1.019c.147-.068.346-.246.347-.376.023-1.841.016-3.683.016-5.559H311.8V66.94c.1.032.186.06.272.085.565.163.816.5.721.963s-.457.687-1.036.632a1.761,1.761,0,0,1-1.607-1.641c-.027-2.678-.062-5.358.019-8.033a3.133,3.133,0,0,1,2.05-2.777c.082-.038.171-.06.254-.094s.162-.073.266-.12c0-2.009.012-4.017-.019-6.024,0-.206-.274-.407-.509-.734-.477,1.385-.887,2.575-1.3,3.766-.615,1.794-1.222,3.591-1.851,5.38-.085.243-.233.571-.429.641a1.075,1.075,0,0,1-.89-.082,1.059,1.059,0,0,1-.266-.842,7.385,7.385,0,0,1,.421-1.324h-5.71l2.79,8.241.121.008c.31-.911.593-1.834.948-2.727a1.189,1.189,0,0,1,.639-.638.773.773,0,0,1,.924,1.015c-.579,1.768-1.173,3.532-1.816,5.277a1.127,1.127,0,0,1-.756.553c-.42.081-.677-.241-.812-.643-.628-1.866-1.264-3.729-1.9-5.594q-2.086-6.159-4.17-12.318c-.057-.169-.127-.334-.2-.518a.64.64,0,0,0-.628.75c.02,3.492.015,6.985,0,10.478a.605.605,0,0,0,.395.654,2.669,2.669,0,0,1,1.43,3.089,2.7,2.7,0,0,1-5.246-.031,2.679,2.679,0,0,1,1.41-3.053c.238-.123.4-.216.4-.543-.016-3.348-.01-6.7-.012-10.043a1.118,1.118,0,0,0-.022-.159c-.036-.013-.078-.044-.1-.034-1.456.724-2.947,1.388-4.354,2.2a4.4,4.4,0,0,0-2.262,4.012c-.019,3.529-.006,7.057-.006,10.586a4.271,4.271,0,0,1-.008.488.736.736,0,0,1-.8.716.725.725,0,0,1-.805-.707c-.038-.413-.014-.832-.014-1.248q0-4.8,0-9.609a6.3,6.3,0,0,1,3.715-6.007l2.961-1.5c-.29-.576-.578-1.095-.818-1.636a12.71,12.71,0,0,1-1.1-5.213c0-5.592-.01-11.183.009-16.775a12.469,12.469,0,0,1,2.108-6.85c.213-.329.51-.594.891-.446a1.227,1.227,0,0,1,.635.638,1.025,1.025,0,0,1-.2.743,11.4,11.4,0,0,0-1.748,4.91,5.938,5.938,0,0,0-.051.648c0,5.9-.028,11.8.01,17.7a10.3,10.3,0,0,0,1.777,5.55c1.058-.526,2.086-1.046,3.121-1.549,2.415-1.175,1.877-1.06,1.921-3.1.027-1.248,0-2.5.011-3.746a.663.663,0,0,0-.344-.653,9.126,9.126,0,0,1-4.422-7.981c-.017-1.158-.007-2.316.005-3.474.007-.647.291-.946.916-.96a7,7,0,0,0,6.317-4.069,16.749,16.749,0,0,0,.715-1.637,1.319,1.319,0,0,1,1.269-.926,1.279,1.279,0,0,1,1.3.872,9.482,9.482,0,0,0,7.085,5.947c.686.16.851.368.842,1.046a45.011,45.011,0,0,1-.108,4.553,8.8,8.8,0,0,1-4.211,6.578.8.8,0,0,0-.443.769q.034,2.442,0,4.886a1.2,1.2,0,0,0,.621,1.177c1.448.77,2.909,1.514,4.389,2.28a10.741,10.741,0,0,0,1.7-4.484,12.26,12.26,0,0,0,.118-1.676c.008-5.5.027-11,0-16.5a11.221,11.221,0,0,0-8.808-11.012,11,11,0,0,0-8.763,1.608c-.721.469-1.147.482-1.464.02s-.14-.907.544-1.361a12.729,12.729,0,0,1,5.64-2.086,2.486,2.486,0,0,0,.358-.1Zm-8.789,15.724c0,1.031-.009,2.023,0,3.015a7.633,7.633,0,0,0,6.889,7.513,7.494,7.494,0,0,0,8.075-5.834,32.376,32.376,0,0,0,.33-4.612A11.254,11.254,0,0,1,305.1,22.7c-1.512,3.39-3.842,5.681-7.65,6.148m4.762,11.724v.583c0,1.356-.03,2.713.009,4.068a2.834,2.834,0,0,1-1.463,2.654c-.412.255-.847.473-1.278.711a1.167,1.167,0,0,0,.028.226c.669,1.983,1.332,3.969,2.028,5.943a.661.661,0,0,0,.514.3c1.988.021,3.977,0,5.966.024a.564.564,0,0,0,.637-.479c.5-1.526,1.031-3.042,1.549-4.562.161-.472.318-.946.48-1.427-.425-.233-.808-.432-1.18-.651a2.964,2.964,0,0,1-1.607-2.854c.048-1.264.01-2.531.01-3.8v-.731a9.356,9.356,0,0,1-5.693-.009m13.132,18.909a1.792,1.792,0,0,0-.888-1.7,1.77,1.77,0,0,0-2.67,1.7Zm-19.868,4.206a1.081,1.081,0,0,0,1.053,1.085,1.113,1.113,0,0,0,1.1-1.108,1.081,1.081,0,0,0-1.095-1.043,1.045,1.045,0,0,0-1.057,1.066" transform="translate(-245.664 -11.218)" fill="#1aa9a0"/>
    <path id="Path_83" data-name="Path 83" d="M393.173,164.968a3.629,3.629,0,0,1-2.424-.96.81.81,0,1,1,1.048-1.233,1.94,1.94,0,0,0,2.738.01.822.822,0,0,1,1.2.045.846.846,0,0,1-.167,1.2,3.614,3.614,0,0,1-2.4.94" transform="translate(-333.787 -138.968)" fill="#1aa9a0"/>
  </g>
</svg>
