<svg xmlns="http://www.w3.org/2000/svg" xmlns:xlink="http://www.w3.org/1999/xlink" width="37.883" height="57.759" viewBox="0 0 37.883 57.759">
  <defs>
    <clipPath id="clip-path">
      <rect id="Rectangle_68" data-name="Rectangle 68" width="37.883" height="57.759" fill="#1aa9a0"/>
    </clipPath>
  </defs>
  <g id="Group_60" data-name="Group 60" clip-path="url(#clip-path)">
    <path id="Path_70" data-name="Path 70" d="M.56,57.758a1.281,1.281,0,0,1-.56-1.2c.014-4.736,0-9.471.01-14.207a4.454,4.454,0,0,1,2.9-4.411c2.74-1.179,5.475-2.369,8.229-3.516a2.123,2.123,0,0,0,1.542-2.159.812.812,0,0,1,.834-.929.8.8,0,0,1,.828.972c-.056.624-.259,1.234-.368,1.856a.965.965,0,0,0,.05.638c1.327,1.937,2.673,3.86,4.024,5.781.547.778,1.254.768,1.811-.024,1.339-1.905,2.666-3.82,4.008-5.723a.665.665,0,0,0,.065-.705,6.917,6.917,0,0,1-.384-1.737c-.063-.878-.016-1.763-.016-2.742a10.879,10.879,0,0,1-15.362-8.94c-.2-.011-.395-.024-.595-.032a3.108,3.108,0,0,1-2.918-2.245,3.039,3.039,0,0,1,1.264-3.4.831.831,0,0,0,.425-.815c-.014-2.668.012-5.337-.016-8.005A3.9,3.9,0,0,1,7.7,3.134,10.439,10.439,0,0,1,12.144.915a25.56,25.56,0,0,1,14.389.241,9.75,9.75,0,0,1,3.555,1.892,3.976,3.976,0,0,1,1.471,3.208c-.032,2.649,0,5.3-.016,7.949a.823.823,0,0,0,.413.821,3.07,3.07,0,0,1-1.631,5.641c-.495.006-.636.141-.707.645a10.553,10.553,0,0,1-4.014,7,.889.889,0,0,0-.393.8c.022,1.071.019,2.142,0,3.213a1.96,1.96,0,0,0,1.331,2q4.226,1.782,8.432,3.61a4.466,4.466,0,0,1,2.895,4.415c.006,4.736,0,9.471.01,14.207a1.287,1.287,0,0,1-.56,1.2h-.564a1.174,1.174,0,0,1-.584-1.176c.014-4.734.006-9.469.01-14.2a2.881,2.881,0,0,0-1.9-2.9c-1.954-.822-3.9-1.668-5.847-2.5-.146-.062-.3-.11-.5-.184,0,2.19-.008,4.312.018,6.432,0,.143.232.345.4.416a3.56,3.56,0,1,1-4.739,4.124,3.513,3.513,0,0,1,2.184-4.1.61.61,0,0,0,.452-.7c-.016-2.029-.007-4.058-.007-6.087,0-.879,0-.879-.893-1.2-.1.141-.218.287-.324.438-1.27,1.816-2.53,3.638-3.809,5.448a2.648,2.648,0,0,1-4.557-.015c-1.2-1.7-2.387-3.417-3.581-5.126-.18-.258-.364-.513-.509-.717-.819.07-.964.517-.94,1.2.05,1.426.015,2.855.015,4.283v1.3a3.46,3.46,0,0,1,3.212,2.277c1.124,3.2,2.181,6.428,3.217,9.659a2.577,2.577,0,0,1-1.593,3.156l-.47.18H13.19c-.352-.306-.653-.639-.449-1.152s.651-.554,1.124-.542c.525.013,1.052.015,1.577,0a.964.964,0,0,0,.974-1.338c-.081-.288-.191-.569-.286-.853q-1.352-4.055-2.7-8.11a1.918,1.918,0,0,0-2.164-1.556c-.376,0-.751-.006-1.127,0a1.862,1.862,0,0,0-1.9,1.384c-.18.513-.344,1.031-.516,1.547-.83,2.49-1.666,4.978-2.488,7.471-.294.89.111,1.444,1.037,1.456.507.007,1.015.014,1.521,0,.488-.016.924.071,1.092.589s-.117.857-.543,1.106H5.522c-2.032-.952-2.46-1.98-1.737-4.147.9-2.684,1.822-5.358,2.666-8.059a3.836,3.836,0,0,1,3.469-3.06V36.807c-.215.081-.407.145-.591.224Q6.561,38.211,3.8,39.4a2.926,2.926,0,0,0-2.1,3.163c0,4.675-.006,9.35.008,14.025a1.176,1.176,0,0,1-.584,1.176ZM11.673,14.447c.209.01.392.026.574.027,1.127,0,2.256.028,3.382-.007.97-.03,1.8.164,2.186,1.009h2.253a1.96,1.96,0,0,1,2-1.008c1.367.027,2.736.007,4.133.007V12.584c-.131-.013-.222-.028-.314-.031-.15,0-.3,0-.451,0-.64-.014-.985-.3-.993-.824-.008-.539.358-.861,1.019-.865,1.259-.008,2.518,0,3.777,0,.2,0,.393-.02.619-.032,0-1.587-.02-3.108.008-4.627a2.062,2.062,0,0,0-.876-1.854,11.414,11.414,0,0,0-2.436-1.372,23.422,23.422,0,0,0-13.207-.632A10.109,10.109,0,0,0,8.912,4.31a2.282,2.282,0,0,0-.895,1.911c.032,1.333.009,2.668.009,4v.637h.753q6.23,0,12.46,0a2.356,2.356,0,0,1,.667.063.761.761,0,0,1,.573.859.771.771,0,0,1-.71.751,3.826,3.826,0,0,1-.563.015H11.673ZM9.945,16.186a38.867,38.867,0,0,0,.036,5.054,8.97,8.97,0,0,0,8.234,7.667,9.07,9.07,0,0,0,9.457-6.522c.586-2,.344-4.061.347-6.1,0-.028-.046-.056-.064-.075h-.931c0,.339.011.637,0,.935a3.506,3.506,0,0,1-2.78,3.445,7.77,7.77,0,0,1-1.905.077A2.517,2.517,0,0,1,19.913,18.3a3.212,3.212,0,0,0-.064-.5.938.938,0,0,0-1.814-.022,5.3,5.3,0,0,0-.1.668,2.62,2.62,0,0,1-2.18,2.206,8.59,8.59,0,0,1-1.125.034,3.564,3.564,0,0,1-3.779-3.777c0-.235-.02-.47-.032-.721ZM27.056,45.115a1.829,1.829,0,0,0-1.832,1.875A1.864,1.864,0,0,0,27.1,48.838a1.9,1.9,0,0,0,1.848-1.891,1.862,1.862,0,0,0-1.891-1.832M12.573,16.188c-.063.929-.1,1.793.7,2.407a2.871,2.871,0,0,0,2.426.3.783.783,0,0,0,.506-.537c.062-.713.024-1.435.024-2.173Zm12.72-.022c-.932,0-1.828-.008-2.724,0-1.108.013-.963-.179-.969.991-.008,1.737.207,1.933,1.954,1.828a1.789,1.789,0,0,0,1.73-1.554,9.35,9.35,0,0,0,.009-1.267m-17.177.027a1.547,1.547,0,0,0-1.695.707,1.31,1.31,0,0,0,.1,1.525,1.466,1.466,0,0,0,1.6.519Zm21.661,2.757a1.469,1.469,0,0,0,1.636-.591,1.311,1.311,0,0,0,.008-1.529,1.543,1.543,0,0,0-1.644-.635Zm-21.7-4.511H9.9V12.571H8.073Zm21.75-1.856H27.973v1.86h1.851Z" transform="translate(0 0)" fill="#1aa9a0"/>
  </g>
</svg>
