<?xml version="1.0" encoding="UTF-8"?>
<svg width="700pt" height="700pt" version="1.1" viewBox="0 0 700 700" xmlns="http://www.w3.org/2000/svg" xmlns:xlink="http://www.w3.org/1999/xlink">
 <defs>
  <symbol id="h" overflow="visible">
   <path d="m14.656-0.875c-0.76172 0.39844-1.5547 0.69531-2.375 0.89062-0.8125 0.19531-1.6641 0.29688-2.5469 0.29688-2.6562 0-4.7617-0.73828-6.3125-2.2188-1.5547-1.4883-2.3281-3.5039-2.3281-6.0469 0-2.5508 0.77344-4.5664 2.3281-6.0469 1.5508-1.4883 3.6562-2.2344 6.3125-2.2344 0.88281 0 1.7344 0.10156 2.5469 0.29688 0.82031 0.19922 1.6133 0.49609 2.375 0.89062v3.2969c-0.76172-0.51953-1.5117-0.89844-2.25-1.1406-0.74219-0.23828-1.5234-0.35938-2.3438-0.35938-1.4688 0-2.625 0.46875-3.4688 1.4062-0.83594 0.9375-1.25 2.2344-1.25 3.8906 0 1.6484 0.41406 2.9375 1.25 3.875 0.84375 0.9375 2 1.4062 3.4688 1.4062 0.82031 0 1.6016-0.11719 2.3438-0.35938 0.73828-0.23828 1.4883-0.61719 2.25-1.1406z"/>
  </symbol>
  <symbol id="c" overflow="visible">
   <path d="m10.719-8.7031c-0.33594-0.15625-0.66797-0.26953-1-0.34375-0.32422-0.082031-0.65625-0.125-1-0.125-0.98047 0-1.7344 0.32031-2.2656 0.95312-0.53125 0.625-0.79688 1.5273-0.79688 2.7031v5.5156h-3.8125v-11.969h3.8125v1.9688c0.48828-0.78125 1.0508-1.3477 1.6875-1.7031 0.64453-0.36328 1.4102-0.54688 2.2969-0.54688 0.13281 0 0.27344 0.007812 0.42188 0.015625 0.14453 0.011719 0.36328 0.03125 0.65625 0.0625z"/>
  </symbol>
  <symbol id="a" overflow="visible">
   <path d="m13.781-6.0156v1.0938h-8.9375c0.09375 0.89844 0.41406 1.5703 0.96875 2.0156 0.55078 0.44922 1.3281 0.67188 2.3281 0.67188 0.80078 0 1.625-0.11719 2.4688-0.35938 0.84375-0.23828 1.7109-0.59766 2.6094-1.0781v2.9531c-0.90625 0.33594-1.8125 0.58984-2.7188 0.76562s-1.8125 0.26562-2.7188 0.26562c-2.1562 0-3.8398-0.54688-5.0469-1.6406-1.1992-1.1016-1.7969-2.6484-1.7969-4.6406 0-1.9453 0.58594-3.4766 1.7656-4.5938 1.1758-1.125 2.8008-1.6875 4.875-1.6875 1.875 0 3.375 0.57031 4.5 1.7031 1.1328 1.125 1.7031 2.6367 1.7031 4.5312zm-3.9375-1.2656c0-0.72656-0.21484-1.3125-0.64062-1.75-0.41797-0.44531-0.96875-0.67188-1.6562-0.67188-0.74219 0-1.3438 0.21094-1.8125 0.625-0.46094 0.41797-0.74609 1.0156-0.85938 1.7969z"/>
  </symbol>
  <symbol id="m" overflow="visible">
   <path d="m7.2031-5.3906c-0.80469 0-1.4062 0.13672-1.8125 0.40625-0.39844 0.27344-0.59375 0.67188-0.59375 1.2031 0 0.48047 0.16016 0.85938 0.48438 1.1406 0.32031 0.27344 0.77344 0.40625 1.3594 0.40625 0.71875 0 1.3203-0.25391 1.8125-0.76562 0.48828-0.51953 0.73438-1.1719 0.73438-1.9531v-0.4375zm5.8438-1.4375v6.8281h-3.8594v-1.7656c-0.51172 0.71875-1.0898 1.2461-1.7344 1.5781-0.63672 0.33203-1.418 0.5-2.3438 0.5-1.2422 0-2.2461-0.35938-3.0156-1.0781-0.77344-0.72656-1.1562-1.6719-1.1562-2.8281 0-1.3945 0.47656-2.4219 1.4375-3.0781 0.96875-0.65625 2.4883-0.98438 4.5625-0.98438h2.25v-0.29688c0-0.60156-0.24219-1.0469-0.71875-1.3281-0.48047-0.28125-1.2266-0.42188-2.2344-0.42188-0.8125 0-1.5742 0.085937-2.2812 0.25-0.71094 0.15625-1.3672 0.40234-1.9688 0.73438v-2.9219c0.82031-0.19531 1.6445-0.34766 2.4688-0.45312 0.82031-0.10156 1.6484-0.15625 2.4844-0.15625 2.1562 0 3.7109 0.42969 4.6719 1.2812 0.95703 0.84375 1.4375 2.2266 1.4375 4.1406z"/>
  </symbol>
  <symbol id="b" overflow="visible">
   <path d="m6.0156-15.359v3.3906h3.9375v2.7344h-3.9375v5.0781c0 0.55469 0.10938 0.92969 0.32812 1.125 0.21875 0.19922 0.65625 0.29688 1.3125 0.29688h1.9688v2.7344h-3.2812c-1.5117 0-2.5859-0.3125-3.2188-0.9375-0.625-0.63281-0.9375-1.707-0.9375-3.2188v-5.0781h-1.9062v-2.7344h1.9062v-3.3906z"/>
  </symbol>
  <symbol id="l" overflow="visible">
   <path d="m9.9688-10.219v-6.4062h3.8594v16.625h-3.8594v-1.7344c-0.52344 0.71094-1.1016 1.2305-1.7344 1.5625-0.63672 0.32031-1.3711 0.48438-2.2031 0.48438-1.4688 0-2.6797-0.58203-3.625-1.75-0.94922-1.1758-1.4219-2.6875-1.4219-4.5312s0.47266-3.3477 1.4219-4.5156c0.94531-1.1758 2.1562-1.7656 3.625-1.7656 0.83203 0 1.5664 0.16797 2.2031 0.5 0.63281 0.32422 1.2109 0.83594 1.7344 1.5312zm-2.5156 7.75c0.82031 0 1.4453-0.29688 1.875-0.89062 0.42578-0.60156 0.64062-1.4727 0.64062-2.6094 0-1.1445-0.21484-2.0156-0.64062-2.6094-0.42969-0.59375-1.0547-0.89062-1.875-0.89062-0.8125 0-1.4336 0.29688-1.8594 0.89062-0.42969 0.59375-0.64062 1.4648-0.64062 2.6094 0 1.1367 0.21094 2.0078 0.64062 2.6094 0.42578 0.59375 1.0469 0.89062 1.8594 0.89062z"/>
  </symbol>
  <symbol id="k" overflow="visible">
   <path d="m8.2031-2.4688c0.82031 0 1.4453-0.29688 1.875-0.89062 0.42578-0.60156 0.64062-1.4727 0.64062-2.6094 0-1.1445-0.21484-2.0156-0.64062-2.6094-0.42969-0.59375-1.0547-0.89062-1.875-0.89062-0.82422 0-1.4531 0.30469-1.8906 0.90625-0.4375 0.59375-0.65625 1.4609-0.65625 2.5938 0 1.1367 0.21875 2.0078 0.65625 2.6094 0.4375 0.59375 1.0664 0.89062 1.8906 0.89062zm-2.5469-7.75c0.53125-0.69531 1.1133-1.207 1.75-1.5312 0.64453-0.33203 1.3828-0.5 2.2188-0.5 1.4688 0 2.6758 0.58984 3.625 1.7656 0.94531 1.168 1.4219 2.6719 1.4219 4.5156s-0.47656 3.3555-1.4219 4.5312c-0.94922 1.168-2.1562 1.75-3.625 1.75-0.83594 0-1.5742-0.16797-2.2188-0.5-0.63672-0.33203-1.2188-0.84766-1.75-1.5469v1.7344h-3.8125v-16.625h3.8125z"/>
  </symbol>
  <symbol id="j" overflow="visible">
   <path d="m0.26562-11.969h3.8281l3.2188 8.125 2.7344-8.125h3.8125l-5.0312 13.094c-0.5 1.332-1.0898 2.2656-1.7656 2.7969-0.66797 0.53125-1.5547 0.79688-2.6562 0.79688h-2.2188v-2.5h1.2031c0.64453 0 1.1133-0.10547 1.4062-0.3125 0.30078-0.21094 0.53125-0.57812 0.6875-1.1094l0.10938-0.34375z"/>
  </symbol>
  <symbol id="i" overflow="visible">
   <path d="m0.65625-15.953h3.9375l2.75 11.594 2.7344-11.594h3.9688l2.7344 11.594 2.75-11.594h3.9062l-3.75 15.953h-4.75l-2.8906-12.125-2.8594 12.125h-4.75z"/>
  </symbol>
  <symbol id="g" overflow="visible">
   <path d="m2.0156-15.953h11.094v3.1094h-6.9844v2.9688h6.5625v3.1094h-6.5625v3.6562h7.2188v3.1094h-11.328z"/>
  </symbol>
  <symbol id="z" overflow="visible">
   <path d="m8.3906-9.7656c0.65625 0 1.1484-0.14062 1.4844-0.42188 0.33203-0.28906 0.5-0.71094 0.5-1.2656 0-0.55078-0.16797-0.97266-0.5-1.2656-0.33594-0.28906-0.82812-0.4375-1.4844-0.4375h-2.2656v3.3906zm0.14062 6.9688c0.82031 0 1.4414-0.17188 1.8594-0.51562 0.41406-0.35156 0.625-0.88281 0.625-1.5938 0-0.6875-0.21094-1.2031-0.625-1.5469-0.40625-0.34375-1.0273-0.51562-1.8594-0.51562h-2.4062v4.1719zm3.8281-5.7344c0.88281 0.25 1.5664 0.72656 2.0469 1.4219 0.48828 0.6875 0.73438 1.5312 0.73438 2.5312 0 1.543-0.52344 2.6953-1.5625 3.4531-1.043 0.75-2.625 1.125-4.75 1.125h-6.8125v-15.953h6.1719c2.207 0 3.8047 0.33984 4.7969 1.0156 1 0.66797 1.5 1.7344 1.5 3.2031 0 0.78125-0.18359 1.4492-0.54688 2-0.36719 0.54297-0.89062 0.94531-1.5781 1.2031z"/>
  </symbol>
  <symbol id="y" overflow="visible">
   <path d="m0.10938-15.953h14.688v3.1094h-5.2812v12.844h-4.1094v-12.844h-5.2969z"/>
  </symbol>
  <symbol id="x" overflow="visible">
   <path d="m2.0156-15.953h4.1094v6.0781h6.0625v-6.0781h4.1094v15.953h-4.1094v-6.7656h-6.0625v6.7656h-4.1094z"/>
  </symbol>
  <symbol id="w" overflow="visible">
   <path d="m9.2969-13.25c-1.2617 0-2.2344 0.46484-2.9219 1.3906-0.6875 0.91797-1.0312 2.2188-1.0312 3.9062 0 1.668 0.34375 2.9648 1.0312 3.8906 0.6875 0.92969 1.6602 1.3906 2.9219 1.3906 1.2578 0 2.2344-0.46094 2.9219-1.3906 0.6875-0.92578 1.0312-2.2227 1.0312-3.8906 0-1.6875-0.34375-2.9883-1.0312-3.9062-0.6875-0.92578-1.6641-1.3906-2.9219-1.3906zm0-2.9844c2.5625 0 4.5664 0.73438 6.0156 2.2031 1.457 1.4688 2.1875 3.4961 2.1875 6.0781 0 2.5742-0.73047 4.5938-2.1875 6.0625-1.4492 1.4688-3.4531 2.2031-6.0156 2.2031s-4.5742-0.73438-6.0312-2.2031c-1.4492-1.4688-2.1719-3.4883-2.1719-6.0625 0-2.582 0.72266-4.6094 2.1719-6.0781 1.457-1.4688 3.4688-2.2031 6.0312-2.2031z"/>
  </symbol>
  <symbol id="e" overflow="visible">
   <path d="m2.0156-15.953h6.8125c2.0312 0 3.5859 0.45312 4.6719 1.3594 1.0938 0.89844 1.6406 2.1797 1.6406 3.8438 0 1.6797-0.54688 2.9688-1.6406 3.875-1.0859 0.89844-2.6406 1.3438-4.6719 1.3438h-2.7031v5.5312h-4.1094zm4.1094 2.9844v4.4531h2.2656c0.80078 0 1.4141-0.19141 1.8438-0.57812 0.4375-0.38281 0.65625-0.9375 0.65625-1.6562 0-0.70703-0.21875-1.2539-0.65625-1.6406-0.42969-0.38281-1.043-0.57812-1.8438-0.57812z"/>
  </symbol>
  <symbol id="v" overflow="visible">
   <path d="m13.109-15.438v3.375c-0.875-0.39453-1.7305-0.69141-2.5625-0.89062-0.83594-0.19531-1.6211-0.29688-2.3594-0.29688-0.99219 0-1.7188 0.13672-2.1875 0.40625-0.46875 0.27344-0.70312 0.6875-0.70312 1.25 0 0.42969 0.15625 0.76172 0.46875 1 0.32031 0.24219 0.89844 0.44922 1.7344 0.625l1.75 0.34375c1.7695 0.35547 3.0312 0.89844 3.7812 1.625 0.75 0.73047 1.125 1.7617 1.125 3.0938 0 1.7617-0.52734 3.0742-1.5781 3.9375-1.043 0.85547-2.6328 1.2812-4.7656 1.2812-1.0117 0-2.0273-0.10156-3.0469-0.29688-1.0234-0.1875-2.043-0.46875-3.0625-0.84375v-3.4688c1.0195 0.53125 2.0039 0.9375 2.9531 1.2188 0.95703 0.27344 1.875 0.40625 2.75 0.40625 0.90625 0 1.5938-0.14453 2.0625-0.4375 0.47656-0.30078 0.71875-0.73438 0.71875-1.2969 0-0.48828-0.16406-0.86719-0.48438-1.1406-0.32422-0.26953-0.96875-0.51562-1.9375-0.73438l-1.5938-0.35938c-1.5938-0.33203-2.7617-0.875-3.5-1.625-0.74219-0.75-1.1094-1.7578-1.1094-3.0312 0-1.582 0.50781-2.8008 1.5312-3.6562 1.0312-0.85156 2.5078-1.2812 4.4375-1.2812 0.875 0 1.7734 0.070313 2.7031 0.20312 0.92578 0.125 1.8828 0.32422 2.875 0.59375z"/>
  </symbol>
  <symbol id="f" overflow="visible">
   <path d="m2.0156-15.953h4.1094v12.844h7.2188v3.1094h-11.328z"/>
  </symbol>
  <symbol id="u" overflow="visible">
   <path d="m9.7031-16.625v2.5156h-2.1094c-0.54297 0-0.92188 0.10156-1.1406 0.29688-0.21094 0.19922-0.3125 0.53906-0.3125 1.0156v0.82812h3.2656v2.7344h-3.2656v9.2344h-3.8281v-9.2344h-1.8906v-2.7344h1.8906v-0.82812c0-1.3008 0.36328-2.2656 1.0938-2.8906 0.72656-0.625 1.8516-0.9375 3.375-0.9375z"/>
  </symbol>
  <symbol id="d" overflow="visible">
   <path d="m7.5312-9.5156c-0.84375 0-1.4922 0.30859-1.9375 0.92188-0.44922 0.60547-0.67188 1.4805-0.67188 2.625 0 1.1484 0.22266 2.0273 0.67188 2.6406 0.44531 0.60547 1.0938 0.90625 1.9375 0.90625 0.83203 0 1.4688-0.30078 1.9062-0.90625 0.44531-0.61328 0.67188-1.4922 0.67188-2.6406 0-1.1445-0.22656-2.0195-0.67188-2.625-0.4375-0.61328-1.0742-0.92188-1.9062-0.92188zm0-2.7344c2.0508 0 3.6562 0.55859 4.8125 1.6719 1.1641 1.1055 1.75 2.6406 1.75 4.6094s-0.58594 3.5117-1.75 4.625c-1.1562 1.1055-2.7617 1.6562-4.8125 1.6562-2.0625 0-3.6797-0.55078-4.8438-1.6562-1.168-1.1133-1.75-2.6562-1.75-4.625s0.58203-3.5039 1.75-4.6094c1.1641-1.1133 2.7812-1.6719 4.8438-1.6719z"/>
  </symbol>
  <symbol id="t" overflow="visible">
   <path d="m12.922-9.9688c0.48828-0.75 1.0625-1.3164 1.7188-1.7031 0.66406-0.38281 1.3984-0.57812 2.2031-0.57812 1.375 0 2.4219 0.42969 3.1406 1.2812 0.71875 0.84375 1.0781 2.0742 1.0781 3.6875v7.2812h-3.8438v-6.2344c0.007812-0.09375 0.015625-0.1875 0.015625-0.28125v-0.4375c0-0.84375-0.125-1.457-0.375-1.8438-0.25-0.38281-0.65234-0.57812-1.2031-0.57812-0.73047 0-1.293 0.30469-1.6875 0.90625-0.38672 0.59375-0.58984 1.4609-0.60938 2.5938v5.875h-3.8438v-6.2344c0-1.3203-0.11719-2.1758-0.34375-2.5625-0.23047-0.38281-0.63672-0.57812-1.2188-0.57812-0.73047 0-1.2969 0.30469-1.7031 0.90625-0.39844 0.60547-0.59375 1.4648-0.59375 2.5781v5.8906h-3.8438v-11.969h3.8438v1.75c0.46875-0.66406 1.0039-1.1719 1.6094-1.5156 0.61328-0.34375 1.2891-0.51562 2.0312-0.51562 0.82031 0 1.5508 0.19922 2.1875 0.59375 0.63281 0.39844 1.1133 0.96094 1.4375 1.6875z"/>
  </symbol>
  <symbol id="s" overflow="visible">
   <path d="m13.859-7.2812v7.2812h-3.8438v-5.5469c0-1.0508-0.027344-1.7695-0.078125-2.1562-0.042969-0.39453-0.12109-0.6875-0.23438-0.875-0.14844-0.25-0.35156-0.44141-0.60938-0.57812-0.25-0.14453-0.54297-0.21875-0.875-0.21875-0.79297 0-1.418 0.3125-1.875 0.9375-0.46094 0.61719-0.6875 1.4648-0.6875 2.5469v5.8906h-3.8125v-16.625h3.8125v6.4062c0.58203-0.69531 1.1953-1.207 1.8438-1.5312 0.64453-0.33203 1.3594-0.5 2.1406-0.5 1.3828 0 2.4297 0.42969 3.1406 1.2812 0.71875 0.84375 1.0781 2.0742 1.0781 3.6875z"/>
  </symbol>
  <symbol id="r" overflow="visible">
   <path d="m2.0156-15.953h4.5781l5.8125 10.938v-10.938h3.8906v15.953h-4.5938l-5.7969-10.938v10.938h-3.8906z"/>
  </symbol>
  <symbol id="q" overflow="visible">
   <path d="m1.7031-4.6562v-7.3125h3.8438v1.2031c0 0.64844-0.007813 1.4609-0.015625 2.4375v1.9688c0 0.96094 0.023438 1.6523 0.078125 2.0781 0.050781 0.41797 0.13281 0.72656 0.25 0.92188 0.15625 0.25 0.35938 0.44531 0.60938 0.57812 0.25781 0.13672 0.55078 0.20312 0.875 0.20312 0.80078 0 1.4258-0.30469 1.875-0.92188 0.45703-0.61328 0.6875-1.4688 0.6875-2.5625v-5.9062h3.8281v11.969h-3.8281v-1.7344c-0.57422 0.69922-1.1836 1.2148-1.8281 1.5469-0.64844 0.33203-1.3555 0.5-2.125 0.5-1.3867 0-2.4453-0.42188-3.1719-1.2656-0.71875-0.85156-1.0781-2.0859-1.0781-3.7031z"/>
  </symbol>
  <symbol id="p" overflow="visible">
   <path d="m13.859-7.2812v7.2812h-3.8438v-5.5781c0-1.0312-0.027344-1.7383-0.078125-2.125-0.042969-0.39453-0.12109-0.6875-0.23438-0.875-0.14844-0.25-0.35156-0.44141-0.60938-0.57812-0.25-0.14453-0.54297-0.21875-0.875-0.21875-0.79297 0-1.418 0.3125-1.875 0.9375-0.46094 0.61719-0.6875 1.4648-0.6875 2.5469v5.8906h-3.8125v-11.969h3.8125v1.75c0.58203-0.69531 1.1953-1.207 1.8438-1.5312 0.64453-0.33203 1.3594-0.5 2.1406-0.5 1.3828 0 2.4297 0.42969 3.1406 1.2812 0.71875 0.84375 1.0781 2.0742 1.0781 3.6875z"/>
  </symbol>
  <symbol id="o" overflow="visible">
   <path d="m1.8438-11.969h3.8125v11.75c0 1.6016-0.38672 2.8281-1.1562 3.6719-0.76172 0.84375-1.8711 1.2656-3.3281 1.2656h-1.8906v-2.5h0.65625c0.72656 0 1.2266-0.16797 1.5-0.5 0.26953-0.32422 0.40625-0.96875 0.40625-1.9375zm0-4.6562h3.8125v3.125h-3.8125z"/>
  </symbol>
  <symbol id="n" overflow="visible">
   <path d="m11.5-11.594v3.125c-0.52344-0.35156-1.043-0.61328-1.5625-0.78125-0.52344-0.17578-1.0625-0.26562-1.625-0.26562-1.0742 0-1.9062 0.3125-2.5 0.9375s-0.89062 1.4961-0.89062 2.6094c0 1.1172 0.29688 1.9844 0.89062 2.6094s1.4258 0.9375 2.5 0.9375c0.59375 0 1.1562-0.085937 1.6875-0.26562 0.53906-0.17578 1.0391-0.44141 1.5-0.79688v3.125c-0.59375 0.23047-1.1992 0.39453-1.8125 0.5-0.61719 0.11328-1.2344 0.17188-1.8594 0.17188-2.1562 0-3.8438-0.55078-5.0625-1.6562-1.2188-1.1133-1.8281-2.6562-1.8281-4.625s0.60938-3.5039 1.8281-4.6094c1.2188-1.1133 2.9062-1.6719 5.0625-1.6719 0.625 0 1.2383 0.058594 1.8438 0.17188 0.61328 0.10547 1.2227 0.26562 1.8281 0.48438z"/>
  </symbol>
 </defs>
 <g>
  <path d="m402.51 96.25c21.715 0 39.367-17.625 39.367-39.375 0-21.746-17.652-39.375-39.367-39.375-21.746 0-39.383 17.629-39.383 39.375 0 21.75 17.637 39.375 39.383 39.375zm0-70c16.883 0 30.617 13.738 30.617 30.625s-13.734 30.625-30.617 30.625c-16.891 0-30.633-13.738-30.633-30.625s13.742-30.625 30.633-30.625z"/>
  <path d="m137.82 91.875c24.129 0 43.742-19.582 43.742-43.746 0-24.172-19.613-43.754-43.742-43.754-24.16 0-43.758 19.582-43.758 43.754 0 24.164 19.598 43.746 43.758 43.746zm0-78.75c19.297 0 34.992 15.703 34.992 35.004 0 19.301-15.695 34.996-34.992 34.996-19.301 0-35.008-15.695-35.008-34.996 0-19.301 15.707-35.004 35.008-35.004z"/>
  <path d="m628.6 416.71c-2.8711-7.6797-10.242-13.316-18.793-13.492-0.14062-0.003906-0.28125-0.003906-0.42578-0.003906-2.6484 0-5.4648 0.51953-7.957 1.3477l-19.23 6.0078-90.332-165.65c-5.082-9.75-15.367-15.891-26.629-15.891h-3.6914l-44.055-26.605v-15.551l33.562 8.4805c0.125 0.28516 0.22656 0.57812 0.41797 0.83984l13.68 18.703c0.85547 1.1719 2.1875 1.7891 3.5352 1.7891 0.89453 0 1.8008-0.27344 2.5781-0.83984 1.9492-1.4258 2.375-4.1641 0.94922-6.1172l-8.0977-11.074 7.7852 1.9688c1.6523 0.41016 3.3438 0.61328 5.0312 0.61328 4.9062 0 9.8242-1.7852 13.852-5.0273 0.44922-0.36328 0.82031-0.76172 1.2344-1.1367l123.41 193.6-2.1328 1.457c-1.9961 1.3633-2.5078 4.0859-1.1445 6.0781 0.84375 1.25 2.2188 1.918 3.6172 1.918 0.85156 0 1.707-0.24609 2.4648-0.76172l9.8594-6.7344c1.9961-1.3633 2.5078-4.0859 1.1445-6.0781-1.3594-2-4.0859-2.5-6.0781-1.1484l-0.49609 0.33984-125.22-196.43c0.21484-0.57422 0.46484-1.1328 0.62109-1.7266 1.4141-5.3242 0.64062-10.879-2.1797-15.645-2.9297-4.9414-7.6758-8.4414-13.418-9.8594l-64.973-15.324v-21.93c0-6.8008-1.4297-13.266-3.9922-19.141-2.9531 0.69141-6.0078 1.1016-9.1445 1.2227 2.7812 5.3906 4.3828 11.469 4.3828 17.918v28.746l71.672 17.016c3.4023 0.83984 6.2227 2.9062 7.9414 5.8164 1.6172 2.7266 2.0625 5.8984 1.2539 8.9453-0.58203 2.207-1.9922 4.1914-4.3125 6.0586-3.3047 2.6602-7.5078 3.668-11.27 2.7344l-65.234-16.621-0.050781-0.011719v31.859l48.281 29.152 2.0859 1.2617h6.1289c8.043 0 15.273 4.2852 18.945 11.328l90.332 165.65 3.4375 6.3008 6.8516-2.1406 19.363-6.0508c1.7383-0.57812 3.6406-0.90625 5.2109-0.90625l0.24609 0.003906c4.7383 0.09375 9.0664 3.2344 10.777 7.8047 0.55469 1.4766 0.88281 3.2461 0.83984 4.5078-0.14844 4.5469-3.3516 8.8984-8.1875 11.148-2.9453 1.1016-30.199 11.285-42.391 14.762-1.0312 0.29688-1.875 0.43359-2.7227 0.43359-0.29688 0-0.59375-0.015625-0.89844-0.050781-7.1758-0.76172-13.379-4.8945-16.535-10.949l-66.777-132.68h-113.75c-20.379 0-36.961-16.012-36.969-35.699h107.17c10.602 0 19.195-7.8359 19.195-17.5s-8.5938-17.5-19.195-17.5h-116.43v-103.64c0-33.023 19.691-46.742 38.715-49.074-1.7188-2.5703-3.1953-5.3164-4.3984-8.2031-23.051 4.2266-43.066 22.809-43.066 57.277v103.64h-17.234v-34.898c0.16797-7.3086-3.6641-21.25-18.043-28.039 0.11328-0.89453 0.27734-1.7695 0.27734-2.6914 0-12.078-10.051-21.871-22.449-21.871h-51.926v-1.9141c0-24.883-16.07-46.152-38.84-54.965-3.5391 2.3516-7.3945 4.2461-11.465 5.6914 23.762 5.1445 41.555 25.258 41.555 49.273v10.527l60.676 0.13672c7.5547 0 13.699 5.8867 13.699 13.121 0 7.2383-6.1445 13.129-13.699 13.129l-60.676-0.089844v135.71c0 4.8242-3.9258 8.75-8.75 8.75h-100.62c-4.8242 0-8.75-3.9258-8.75-8.75v-172.54c0-24.016 17.801-44.133 41.562-49.277-4.0703-1.4453-7.9258-3.3359-11.465-5.6914-22.773 8.8164-38.848 30.086-38.848 54.969v172.54c0 9.6641 7.8359 17.5 17.5 17.5v209.85c0 7.3203 5.9297 13.277 13.219 13.277h39.051c8.1445 0 18.449-0.03125 23.461-6.3164 2.3867 3.793 6.625 6.3164 11.371 6.3164 0.60547 0 1.2148-0.042969 1.8281-0.125l39.523-5.2852c8.2109-1.1016 17.516-2.3516 22.02-8.2969 2.2617-2.9883 3.082-6.7891 2.4414-11.297-0.16406-1.1484-0.48828-2.1875-0.80469-3.2305 21.789 17.648 49.535 28.234 79.766 28.234 68.605 0 124.45-54.449 126.77-122.5h39.484v52.805c-17.262 2.1562-30.625 16.848-30.625 34.695 0 19.332 15.672 35 35.004 35 19.324 0 34.996-15.668 34.996-35 0-17.852-13.367-32.543-30.625-34.695v-52.805h26.25v34.945c0 2.4141 1.957 4.3711 4.3711 4.375l52.5 0.054688h0.003906c2.418 0 4.375-1.957 4.3789-4.3711 0.003906-2.4141-1.9531-4.375-4.3711-4.3789l-48.133-0.050781v-34.949c0-2.418-1.9609-4.375-4.375-4.375h-30.625v-81.18l48.312 95.988c4.7344 9.082 13.73 14.688 23.426 15.719 0.62109 0.0625 1.2266 0.097656 1.8242 0.097656 1.7539 0 3.4297-0.27734 5.168-0.78125 13.188-3.7656 43.297-15.074 43.305-15.078 7.5312-3.3672 13.305-10.434 13.582-18.953 0.082031-2.5586-0.5-5.4648-1.3906-7.8516zm-188.42-171.71c5.7578 0 10.445 3.9258 10.445 8.75s-4.6875 8.75-10.445 8.75h-142.41l-0.003906-17.5zm-252.05 91.875c9.6641 0 17.5-7.8359 17.5-17.5v-126.88h51.926c8.2422 0 15.371-4.3789 19.273-10.836 12.102 6.293 12.199 18.906 12.191 19.59v108.68c-46.758 11.48-83.305 48.863-93.586 96.074l-9.8477-69.133zm57.098 91.875c0.94141-16.113 6.957-30.879 16.578-42.641l42.637 42.641zm59.211 8.75-42.633 42.629c-9.6211-11.758-15.633-26.523-16.578-42.629zm-67.965-8.75h-35.109c1.0312-28.168 11.965-53.84 29.43-73.648l24.777 24.777c-11.172 13.371-18.129 30.324-19.098 48.871zm-96.699 122.5h-39.051c-2.4648 0-4.4688-2.0352-4.4688-4.5273v-209.85h46.539l-11.344 194.93h8.3242c6.6211 0 17.73 1.5508 17.73 11.945 0 6.168-3.1484 7.5-17.73 7.5zm0.94922-28.184 3.9141-67.305 12.918 71.867c-4.2812-2.7773-9.9336-4.4336-16.832-4.5625zm90.277 17.945c-2.3008 3.0391-10.012 4.0742-16.199 4.9062l-39.527 5.2852c-2.5586 0.34766-4.9297-1.3945-5.3008-3.9688l-23.156-128.84 4.7422-81.523h25.191l27.234 191.14 8.0312-1.0859c1.7578-0.23438 3.4609-0.35547 5.0664-0.35547 8.8242 0 13.758 3.2461 14.668 9.6484 0.45703 3.1914-0.45312 4.3906-0.75 4.7852zm-23.047-47.176c5.0039 9.1641 11.109 17.633 18.129 25.25-4.1797-1.2031-9.0859-1.582-14.66-0.89844zm22.84 17.305c-17.457-19.805-28.395-45.473-29.43-73.641h35.109c0.96875 18.547 7.9258 35.496 19.094 48.863zm79.836 39.75c-28.633-2.1094-54.453-14.449-73.812-33.398l24.73-24.734c12.996 12.609 30.07 21.035 49.082 23.023zm0-43.953c-16.562-1.9531-31.461-9.3594-42.871-20.387l42.871-42.867zm0-84.375-42.867-42.871c11.406-11.02 26.305-18.426 42.867-20.379zm0-72.094c-19.012 1.9883-36.082 10.406-49.082 23.012l-24.73-24.73c19.359-18.941 45.18-31.281 73.812-33.391zm-12.855-45.312v-33.906h26.492c0.007812 16.023 8.7461 30.02 21.816 37.836-0.69531-0.14453-1.3906-0.29297-2.0898-0.42969-1.6055-1.082-3.1602-2.2266-4.6094-3.5zm27.793 132.34h67.965c-1.0742 18.305-8.7422 34.836-20.727 47.242zm40.824 53.195c-12.824 10.488-29.188 16.805-47.008 16.805h-0.003906v-63.812zm-40.828-61.945 47.25-47.246c11.98 12.402 19.648 28.941 20.719 47.246zm-6.1836-6.1914v-63.809h0.003906c17.82 0 34.188 6.3086 47.008 16.801zm53.246-53.242c-14.422-12.051-32.977-19.316-53.242-19.316h-0.003906v-35c29.887 0 57.195 11.176 78.023 29.539zm-53.246 181.93v-35h0.003906c20.266 0 38.82-7.2656 53.242-19.316l24.773 24.773c-20.824 18.367-48.137 29.543-78.02 29.543zm84.371-35.562-24.727-24.73c13.555-13.984 22.176-32.711 23.258-53.457h35.109c-1.1133 30.371-13.734 57.844-33.641 78.188zm-1.4648-86.938c-1.082-20.746-9.6992-39.473-23.262-53.457l24.73-24.73c19.906 20.34 32.527 47.816 33.641 78.188zm87.723 91.875c2.4102 0 4.3711 1.9609 4.3711 4.375s-1.9609 4.375-4.3711 4.375c-2.4141 0-4.3789-1.9609-4.3789-4.375s1.9648-4.375 4.3789-4.375zm26.246 4.375c0 14.477-11.773 26.25-26.246 26.25-14.477 0-26.254-11.773-26.254-26.25 0-12.98 9.4805-23.758 21.875-25.852v13.531c-5.0898 1.8086-8.75 6.6133-8.75 12.32 0 7.25 5.875 13.125 13.129 13.125 7.2461 0 13.121-5.875 13.121-13.125 0-5.707-3.6641-10.516-8.75-12.32v-13.535c12.395 2.0938 21.875 12.871 21.875 25.855zm-30.625-96.25h-39.484c-1.7383-51.301-33.91-94.852-79.055-113.19 0.96094 0.054687 1.918 0.14062 2.8984 0.14062h108.36l7.2852 14.484z"/>
  
 </g>
</svg>
