<svg id="Group_49" data-name="Group 49" xmlns="http://www.w3.org/2000/svg" xmlns:xlink="http://www.w3.org/1999/xlink" width="34.624" height="57.489" viewBox="0 0 34.624 57.489">
  <defs>
    <clipPath id="clip-path">
      <rect id="Rectangle_61" data-name="Rectangle 61" width="34.624" height="57.489" fill="#1aa9a0"/>
    </clipPath>
  </defs>
  <g id="Group_49-2" data-name="Group 49" clip-path="url(#clip-path)">
    <path id="Path_50" data-name="Path 50" d="M.806,57.489A1.481,1.481,0,0,1,0,55.973Q.024,39.441.013,22.909a13.115,13.115,0,0,1,11-13.2,17.412,17.412,0,0,1,2.514-.171c.308-.011.507-.069.542-.4a.562.562,0,0,1,.057-.158A33.665,33.665,0,0,0,15.772,5.04,3.663,3.663,0,0,1,18.22,2.808a1.338,1.338,0,0,0,.622-.483A4.949,4.949,0,0,1,27.22,2.3a2.075,2.075,0,0,0,.491.52,7.135,7.135,0,0,1,.872,10.866q-1.275,1.3-2.58,2.581a6.984,6.984,0,0,1-6.249,2.048.5.5,0,0,0-.649.405,2.376,2.376,0,0,0,1.572,3.036A7.229,7.229,0,0,0,22.5,22c2.676.025,5.352.008,8.027.012a3.819,3.819,0,0,1,4.081,4.064c0,3.237.011,6.474-.013,9.711a1.866,1.866,0,0,1-.322,1.026.942.942,0,0,1-1.168.275,1.125,1.125,0,0,1-.74-1.144q0-2.779,0-5.557v-.964l-2.217.3V55.2h2.217v-.608q0-4.042,0-8.084a2.482,2.482,0,0,1,.081-.717,1.088,1.088,0,0,1,1.172-.758,1.111,1.111,0,0,1,.978,1c.022.223.011.449.011.673,0,3.087-.015,6.175.012,9.262a1.481,1.481,0,0,1-.807,1.516H28.653a1.58,1.58,0,0,1-.789-1.536q.026-12.8.011-25.595v-.691c-3.793-.173-7.627.5-11.209-1.266-.019.161-.035.233-.035.306q0,10.72-.01,21.441c0,.325.121.44.4.551a4.257,4.257,0,0,1,2.813,3.425c.1.6.02,1.233.069,1.847a1.41,1.41,0,0,1-.8,1.517ZM2.283,32.544h12.1c0-1.746.008-3.446-.013-5.146a.819.819,0,0,0-.3-.478c-.659-.609-1.374-1.161-1.994-1.8A12.96,12.96,0,0,1,9.36,20.831a1.108,1.108,0,0,1,.553-1.466,1.121,1.121,0,0,1,1.5.586c.067.133.114.276.178.411a11.432,11.432,0,0,0,10.12,6.988c3.02.19,6.061.048,9.092.041a1.484,1.484,0,0,0,1.441-.978,1.566,1.566,0,0,0-1.581-2.156c-2.676-.011-5.352,0-8.028-.009a12.429,12.429,0,0,1-1.676-.118,4.529,4.529,0,0,1-4.143-4,14.767,14.767,0,0,1,.207-2.83,7.254,7.254,0,0,1-3.29-5.587c-.893.086-1.759.1-2.593.262a10.859,10.859,0,0,0-8.881,10.81c-.011,3.069,0,6.138,0,9.207,0,.182.016.364.025.553M2.3,50.384H7.164V34.867H2.3Zm12.058-15.5H9.486v15.5h4.872ZM16.323,9.612c-.061.145-.112.241-.143.344a4.865,4.865,0,0,0,2.047,5.433,4.8,4.8,0,0,0,5.787-.363c1.138-1.023,2.2-2.138,3.253-3.249a4.084,4.084,0,0,0,.768-1.226,4.753,4.753,0,0,0-.211-4.274,5.046,5.046,0,0,1-5.021,3.6,1.109,1.109,0,0,0-.578.268,4.251,4.251,0,0,1-3.314.88,4.513,4.513,0,0,1-2.587-1.409m6.531-7.367a2.546,2.546,0,0,0-2.271,1.636,1.442,1.442,0,0,1-1.273.993,1.945,1.945,0,0,0-1.735,1.779,2,2,0,0,0,1.163,2A1.914,1.914,0,0,0,21.1,8.076a1.4,1.4,0,0,1,1.484-.509,2.675,2.675,0,0,0,3.137-2.433,2.739,2.739,0,0,0-2.87-2.888M10.434,55.222a2.16,2.16,0,0,0-2.3-2.56c-1.778,0-3.555,0-5.333,0H2.292v2.561Zm2.4-.021h4.8a2.11,2.11,0,0,0-1.77-2.489c-1.2-.107-2.409-.024-3.553-.024l.524,2.513" transform="translate(0 0)" fill="#1aa9a0"/>
    <path id="Path_51" data-name="Path 51" d="M218.041,267.6a1.116,1.116,0,0,1-1.113,1.145,1.119,1.119,0,1,1,0-2.237,1.117,1.117,0,0,1,1.111,1.092" transform="translate(-183.434 -226.532)" fill="#1aa9a0"/>
  </g>
</svg>
