<svg xmlns="http://www.w3.org/2000/svg" width="30" height="30" viewBox="0 0 30 30">
  <path id="Path_33" data-name="Path 33" d="M3.919,18.538A7.884,7.884,0,0,1,2.553,18.3a2.738,2.738,0,0,1-.985-4.581c1.369-1.391,2.759-2.761,4.14-4.141Q9.642,5.65,13.576,1.717A2.771,2.771,0,0,1,17.835,1.7Q23.829,7.69,29.816,13.682a2.733,2.733,0,0,1-.406,4.359,4.427,4.427,0,0,1-1.242.408,2.927,2.927,0,0,1-.662.008v.5q0,4.138,0,8.276a3.258,3.258,0,0,1-3.466,3.473q-2.187,0-4.374,0c-.747,0-1.063-.318-1.063-1.072q0-3.338,0-6.676a1.511,1.511,0,0,0-1.67-1.668q-1.23-.007-2.46,0a1.5,1.5,0,0,0-1.648,1.649q0,3.338,0,6.676c0,.779-.31,1.089-1.086,1.09-1.484,0-2.968,0-4.452,0A3.244,3.244,0,0,1,3.92,27.333q-.005-4.177,0-8.354Z" transform="translate(-0.712 -0.712)" fill="#0a84e1"/>
</svg>
