<svg xmlns="http://www.w3.org/2000/svg" width="30.047" height="30.047" viewBox="0 0 30.047 30.047">
  <path id="Path_29" data-name="Path 29" d="M3.924,18.566a7.9,7.9,0,0,1-1.368-.233,2.742,2.742,0,0,1-.987-4.588C2.94,12.351,4.332,10.979,5.715,9.6Q9.656,5.658,13.6,1.719a2.775,2.775,0,0,1,4.266-.013q6,6,12,12a2.737,2.737,0,0,1-.407,4.366,4.434,4.434,0,0,1-1.244.409,2.932,2.932,0,0,1-.663.008v.5q0,4.145,0,8.289a3.263,3.263,0,0,1-3.471,3.479q-2.19,0-4.381,0c-.749,0-1.064-.319-1.065-1.073q0-3.343,0-6.686a1.513,1.513,0,0,0-1.673-1.67q-1.232-.007-2.464,0a1.5,1.5,0,0,0-1.65,1.652q0,3.343,0,6.686c0,.78-.311,1.091-1.087,1.091-1.486,0-2.973,0-4.459,0a3.25,3.25,0,0,1-3.37-3.382q-.005-4.184,0-8.367Z" transform="translate(-0.712 -0.712)" fill="#0a84e1"/>
</svg>
