<svg id="Group_75" data-name="Group 75" xmlns="http://www.w3.org/2000/svg" xmlns:xlink="http://www.w3.org/1999/xlink" width="55.667" height="55.645" viewBox="0 0 55.667 55.645">
  <defs>
    <clipPath id="clip-path">
      <rect id="Rectangle_75" data-name="Rectangle 75" width="55.667" height="55.645" fill="#1aa9a0"/>
    </clipPath>
  </defs>
  <g id="Group_74" data-name="Group 74" clip-path="url(#clip-path)">
    <path id="Path_110" data-name="Path 110" d="M23.2,55.645H21.369V51.032h-.657c-1.3,0-2.591.006-3.886,0A2.788,2.788,0,0,1,13.917,48.1c-.007-2.4,0-4.791,0-7.279-.271,0-.512,0-.753,0-.758-.015-1.1-.346-1.1-1.1-.007-1.566,0-3.132,0-4.7v-.693c-1.146,0-2.242,0-3.337,0-1.023,0-1.3-.281-1.3-1.31q0-3.364,0-6.728c0-.945.3-1.241,1.253-1.241q6.177,0,12.354,0c.942,0,1.239.3,1.24,1.256q0,3.393,0,6.786c0,.938-.305,1.235-1.259,1.237-1.1,0-2.2,0-3.38,0v1.231q0,1.973,0,3.944c0,1.035-.271,1.309-1.293,1.321-.17,0-.338.015-.563.026V42.03q0,2.986,0,5.974c0,.839.323,1.167,1.149,1.171,1.447.006,2.893,0,4.417,0v-.658c0-2.745-.014-5.491.015-8.236A2.44,2.44,0,0,1,21.69,39.1c1.326-2.179,2.7-4.33,4.034-6.5a1.62,1.62,0,0,0,.244-.8q.02-9.8.009-19.6a1.88,1.88,0,0,0-1.654-1.978,1.852,1.852,0,0,0-2.01,1.463,3.7,3.7,0,0,0-.044.75c0,3.248,0,6.5,0,9.792H20.411v-.665q0-7.453,0-14.906a1.861,1.861,0,1,0-3.708.013q0,6.032,0,12.064v.722H14.843v-.654q0-7.482,0-14.964A1.849,1.849,0,0,0,12.27,2a1.879,1.879,0,0,0-1.143,1.908q.012,7.395,0,14.79v.737H9.275v-.622c0-3.151,0-6.3,0-9.454a1.85,1.85,0,0,0-3.66-.47,3.514,3.514,0,0,0-.047.749c0,2.939,0,5.877,0,8.915-.435,0-.85,0-1.264,0a2.315,2.315,0,0,0-2.445,2.435c-.007,3.267-.011,6.535.012,9.8a1.619,1.619,0,0,0,.323.88C3.8,33.845,5.434,36,7.041,38.176a1.735,1.735,0,0,1,.362.938c.022,5.413.015,10.826.014,16.24,0,.076-.014.151-.025.267H5.571v-.693c0-5.027.007-10.054-.015-15.08a1.9,1.9,0,0,0-.35-1.043C3.617,36.64,1.983,34.506.4,32.34A2.02,2.02,0,0,1,.02,31.234C-.008,27.793,0,24.352,0,20.911a4.151,4.151,0,0,1,3.243-4.066c.4-.088.477-.248.475-.611-.014-2.184.066-4.372-.024-6.553a3.73,3.73,0,0,1,5.376-3.7A.66.66,0,0,0,9.283,6c0-.725,0-1.437,0-2.149a3.691,3.691,0,0,1,7.307-.871c.021.088.059.173.1.3a4.026,4.026,0,0,1,2.6-.408,3.7,3.7,0,0,1,2.957,3.542c.021.787,0,1.574,0,2.233a11.3,11.3,0,0,1,2.465-.2,3.577,3.577,0,0,1,3.1,3.686c.013,2.8,0,5.607,0,8.41,0,3.828.012,7.656-.016,11.484a2.652,2.652,0,0,1-.365,1.294c-1.312,2.164-2.672,4.3-4.007,6.448a1.323,1.323,0,0,0-.24.63c-.016,2.9-.011,5.8-.011,8.792H43.246c1.021,0,1.3-.282,1.3-1.311q0-3.219,0-6.438v-.619c-.247,0-.435,0-.623,0-.939-.008-1.229-.3-1.233-1.263q0-1.131-.008-2.262a1.11,1.11,0,0,0-.052-.187c-.781,0-1.584,0-2.389,0-.958,0-1.26-.3-1.262-1.232,0-1.064-.006-2.127,0-3.19.005-.8.333-1.118,1.133-1.127.521-.006,1.041,0,1.67,0a13.627,13.627,0,0,0-.112-1.962,2.228,2.228,0,0,0-2.165-1.766,4.178,4.178,0,0,1-4.239-4.458q0-10.614,0-21.228A1.9,1.9,0,0,1,37.412,0q8.062,0,16.124,0a1.905,1.905,0,0,1,2.13,2.153q0,10.585,0,21.17a4.184,4.184,0,0,1-4.257,4.5,2.319,2.319,0,0,0-2.236,2.293c-.012.459,0,.918,0,1.435.592,0,1.128-.006,1.664,0,.767.009,1.11.336,1.116,1.086q.015,1.682,0,3.364c-.006.756-.345,1.09-1.105,1.1-.846.008-1.692,0-2.6,0,0,.8,0,1.546,0,2.294,0,1.184-.222,1.4-1.426,1.419-.115,0-.23.01-.43.02v.619q0,3.248,0,6.5a2.811,2.811,0,0,1-3.057,3.073q-9.686,0-19.372,0H23.2ZM37.183,11.132V12.99H40.79v1.895H37.178V16.7h1.767v1.875H37.168v2.7H53.761V6.547H37.131v2.73h1.814v1.855Zm.006,12.1a2.292,2.292,0,0,0,2.346,2.727,4.187,4.187,0,0,1,4.088,4.2c.006.439,0,.877,0,1.334h3.686c0-.339.015-.644,0-.948a4.285,4.285,0,0,1,4.284-4.609,2.211,2.211,0,0,0,2.139-2.7ZM20.4,26.936H9.308v5.5H20.4ZM37.16,4.587H53.773V1.893H37.16Zm3.692,30.63h9.209V33.428H40.852Zm-25.121-.838H13.965v1.755h1.766Zm28.858,4.533h1.744V37.178H44.589Zm-29.811.01c.2,0,.356-.012.509,0,.376.036.514-.175.429-.488-.2-.735-.8-.217-1.206-.337-.24-.072-.547-.076-.555.358-.013.755.56.352.823.465" transform="translate(0 0)" fill="#1aa9a0"/>
  </g>
</svg>
