<?xml version="1.0" encoding="utf-8"?>
<!-- Generator: Adobe Illustrator 19.0.0, SVG Export Plug-In . SVG Version: 6.00 Build 0)  -->
<svg version="1.1" id="Layer_1" xmlns="http://www.w3.org/2000/svg" xmlns:xlink="http://www.w3.org/1999/xlink" x="0px" y="0px"
	 viewBox="0 0 1080 838.1" style="enable-background:new 0 0 1080 838.1;" xml:space="preserve">
<style type="text/css">
	.st0{fill:#35D388;}
	.st1{fill:url(#XMLID_2_);}
	.st2{fill:url(#XMLID_3_);}
	.st3{fill:#2E72FF;}
	.st4{fill:url(#XMLID_4_);}
	.st5{fill:url(#XMLID_5_);}
	.st6{fill:#1A244C;}
</style>
<g id="XMLID_73_">
	<g id="XMLID_123_">
		<g id="XMLID_141_">
			<path id="XMLID_282_" class="st0" d="M535.9,439.7c-5.4-5.4-46.7-47.7-59.6-61.5c-9.3-9.9-20.7-23.6-26.5-41.5
				c-6.8-21-2.7-39.2,11.8-52.5c9.4-8.6,21.5-13.4,34.1-13.6c12.9-0.2,25.5,4.6,35.3,13.4l0.3,0.3l13.7,14.4l-13.8,13.2L518.2,298
				c-12.9-11.2-31.1-11.1-43.6,0.3c-8.8,8.1-11,18.7-6.6,32.5c3.6,11.1,10.4,21.7,22.2,34.3c12.7,13.6,26.2,27.1,39.1,40.1
				c5.3,5.4,10.8,10.9,16.2,16.4L535.9,439.7z"/>
		</g>
		<linearGradient id="XMLID_2_" gradientUnits="userSpaceOnUse" x1="520.9705" y1="412.6429" x2="543.0734" y2="431.1894">
			<stop  offset="0" style="stop-color:#000000;stop-opacity:0"/>
			<stop  offset="0.8702" style="stop-color:#000000;stop-opacity:0.4572"/>
			<stop  offset="0.9516" style="stop-color:#000000;stop-opacity:0.5"/>
		</linearGradient>
		<path id="XMLID_137_" class="st1" d="M529.4,405.3c5.3,5.4,10.8,10.9,16.2,16.4l-9.7,18.1c-5.4-5.4-14.8-15.6-20.1-21"/>
		<linearGradient id="XMLID_3_" gradientUnits="userSpaceOnUse" x1="524.3953" y1="289.7134" x2="538.1226" y2="306.0729">
			<stop  offset="0" style="stop-color:#000000;stop-opacity:0"/>
			<stop  offset="0.8652" style="stop-color:#000000;stop-opacity:0.4572"/>
			<stop  offset="0.9462" style="stop-color:#000000;stop-opacity:0.5"/>
		</linearGradient>
		<polyline id="XMLID_136_" class="st2" points="531.2,284 531.5,284.3 545.1,298.7 531.3,311.8 518.2,298 		"/>
		<g id="XMLID_128_">
			<path id="XMLID_129_" class="st3" d="M543.2,443c-2.3,0-4.6-0.8-6.5-2.5c-3.9-3.6-4.1-9.6-0.5-13.5l75.4-81.1l0.1-0.1
				c5.8-6,8.9-13.9,8.7-22.2c-0.2-8.1-3.5-15.7-9.3-21.2c-0.3-0.3-0.5-0.5-0.8-0.7c-12.5-11.4-30.8-11.5-43.7-0.2l-9.6,9.6l10,10.6
				c4.7,5,7.3,11.6,7.2,18.6c-0.1,6.9-2.9,13.4-7.8,18.3c-5.2,5.2-12,7.8-18.7,7.8c-6.8,0-13.6-2.6-18.7-7.8l-4.5-4.5
				c-5-5-7.8-11.7-7.8-18.7s2.8-13.7,7.8-18.7l12.5-12.5c0,0,0,0,0.1-0.1l16.5-16.5l0.2-0.2c9.9-8.8,22.4-13.6,35.3-13.4
				c12.6,0.2,24.7,5,34.1,13.6c0.4,0.3,0.7,0.7,1.1,1c9.5,9.1,14.9,21.4,15.2,34.6c0.3,13.4-4.7,26.1-14,35.8l-75.3,80.9
				C548.3,442,545.8,443,543.2,443z M543.6,324.5l-5.5,5.5c-1.4,1.4-2.2,3.3-2.2,5.2s0.8,3.8,2.2,5.2l4.5,4.5
				c2.9,2.9,7.6,2.9,10.5,0c2.8-2.8,2.9-7.4,0.2-10.3L543.6,324.5z"/>
		</g>
		<path id="XMLID_126_" class="st3" d="M697.5,276.6L570.4,163.7c-15.2-13.5-38.1-13.5-53.3,0l-137.4,122c-1.8,1.6-2.8,3.7-3.2,5.9
			c-0.1,0.3-0.2,0.7-0.2,1.1v144.9c0,3,4.6,5.5,10.2,5.5c5.6,0,10.2-2.5,10.2-5.5V297.9l134-119c7.5-6.6,18.8-6.6,26.2,0L684,291.8
			c4.3,3.8,6.7,9.3,6.6,15.1L689,402c-0.2,10.7-9,19.4-19.8,19.4l-118.8,0c-5.6,0-10.2,4.6-10.2,10.2c0,5.6,1.1,10.2,6.8,10.2
			l122.2,0c10.6,0,20.6-4.1,28.1-11.5c7.6-7.4,11.8-17.3,12-27.9l1.6-95.1C711.2,295.5,706.3,284.4,697.5,276.6z"/>
		
			<linearGradient id="XMLID_4_" gradientUnits="userSpaceOnUse" x1="390.1244" y1="8042.1313" x2="399.7202" y2="8053.5674" gradientTransform="matrix(-1 0 0 -1 949.7586 8370.4746)">
			<stop  offset="0" style="stop-color:#000000;stop-opacity:0"/>
			<stop  offset="0.9144" style="stop-color:#000000;stop-opacity:0.4572"/>
			<stop  offset="1" style="stop-color:#000000;stop-opacity:0.5"/>
		</linearGradient>
		<polygon id="XMLID_125_" class="st4" points="566.2,320.9 557.1,311 543.6,324.6 552.7,334.2 		"/>
		<linearGradient id="XMLID_5_" gradientUnits="userSpaceOnUse" x1="553.2305" y1="426.9851" x2="581.4261" y2="437.2475">
			<stop  offset="0" style="stop-color:#000000;stop-opacity:0.5"/>
			<stop  offset="8.559948e-002" style="stop-color:#000000;stop-opacity:0.4572"/>
			<stop  offset="1" style="stop-color:#000000;stop-opacity:0"/>
		</linearGradient>
		<polygon id="XMLID_124_" class="st5" points="567.4,421.5 547.8,441.8 579.8,441.8 584.2,421.4 		"/>
	</g>
	<g id="XMLID_74_">
		<polygon id="XMLID_122_" class="st6" points="199.2,570.7 160,570.7 160,527.2 139,527.2 139,627.9 160,627.9 160,589 199.2,589 
			199.2,627.9 220.1,627.9 220.1,527.2 199.2,527.2 		"/>
		<path id="XMLID_114_" class="st6" d="M314,571.1c-3.6-5.8-8.3-10.3-14.3-13.7c-5.9-3.3-12.6-5-19.9-5c-7.3,0-13.9,1.7-19.9,5
			c-6,3.3-10.8,7.9-14.3,13.7c-3.6,5.8-5.3,12.4-5.3,19.9c0,7.4,1.8,14,5.3,19.8c3.6,5.8,8.3,10.4,14.3,13.7c6,3.3,12.6,5,19.9,5
			c7.3,0,13.9-1.7,19.9-5c5.9-3.3,10.7-7.9,14.3-13.7c3.6-5.8,5.3-12.4,5.3-19.8C319.3,583.5,317.5,576.9,314,571.1z M296,601.5
			c-1.6,3.1-3.7,5.5-6.5,7.2c-2.7,1.7-6,2.6-9.7,2.6c-3.7,0-6.9-0.9-9.7-2.6c-2.8-1.7-5-4.1-6.6-7.2c-1.6-3.1-2.4-6.6-2.4-10.5
			c0-4,0.8-7.5,2.4-10.5c1.6-3,3.8-5.4,6.6-7.2c2.8-1.8,6-2.6,9.7-2.6c3.7,0,6.9,0.9,9.7,2.6c2.7,1.8,4.9,4.1,6.5,7.2
			c1.6,3,2.4,6.5,2.4,10.5C298.4,595,297.6,598.5,296,601.5z"/>
		<path id="XMLID_113_" class="st6" d="M436.9,556c-4.1-2.3-8.8-3.5-14.1-3.5c-6,0-11.3,1.4-15.8,4.3c-2.7,1.7-5,4.1-7,7
			c-1.5-2.6-3.6-4.8-6.3-6.7c-4.6-3.1-10-4.7-16.1-4.7c-5.8,0-10.7,1.4-14.9,4.1c-2.5,1.7-4.4,3.9-5.8,6.7v-9.1h-18.9v73.8h20.3
			v-43.1c0-2.9,0.5-5.4,1.6-7.4c1-2.1,2.5-3.7,4.5-4.9c1.9-1.2,4.2-1.8,6.8-1.8c2.7,0,5,0.6,6.9,1.8c1.9,1.2,3.4,2.8,4.4,4.9
			c1,2.1,1.6,4.6,1.6,7.4v43.1h20.3v-43.1c0-2.9,0.5-5.4,1.6-7.4c1-2.1,2.5-3.7,4.5-4.9c1.9-1.2,4.2-1.8,6.8-1.8
			c2.7,0,5,0.6,6.9,1.8c1.9,1.2,3.4,2.8,4.4,4.9c1,2.1,1.6,4.6,1.6,7.4v43.1h20.3v-47.4c0-5.6-1.2-10.5-3.5-14.7
			C444.3,561.6,441,558.3,436.9,556z"/>
		<path id="XMLID_110_" class="st6" d="M531.4,563c-3.1-3.3-6.9-5.9-11.4-7.8c-4.5-1.8-9.7-2.8-15.5-2.8c-7,0-13.3,1.7-18.9,5
			c-5.6,3.3-10,7.9-13.3,13.7c-3.3,5.8-4.9,12.3-4.9,19.7c0,7.1,1.6,13.6,4.7,19.5c3.2,5.9,7.6,10.5,13.4,14
			c5.8,3.5,12.6,5.2,20.4,5.2c5,0,9.7-0.7,13.9-2.2c4.2-1.5,7.9-3.6,11-6.3c3.1-2.7,5.4-5.9,6.8-9.5l-16.2-7.7
			c-1.4,2.5-3.4,4.5-6,5.9c-2.6,1.4-5.7,2.2-9.3,2.2c-4,0-7.3-0.9-10.1-2.6c-2.8-1.8-4.9-4.2-6.2-7.4c-0.7-1.6-1.2-3.4-1.4-5.3H540
			c0.4-1,0.6-2.2,0.7-3.6c0.1-1.4,0.2-2.8,0.2-4.3c0-5.1-0.8-9.9-2.4-14.3C536.9,570.2,534.5,566.3,531.4,563z M495.4,571.3
			c2.5-1.7,5.5-2.6,9.1-2.6c3.6,0,6.6,0.9,9.1,2.6c2.5,1.8,4.2,4.1,5.2,7.2c0.3,1,0.5,2.2,0.6,3.3h-30.6c0.2-1,0.5-2,0.9-3
			C491,575.5,492.9,573,495.4,571.3z"/>
		<path id="XMLID_109_" class="st6" d="M683.1,602.6l-18.5-8.9c-1.7,4.9-4.7,8.9-9,12.1c-4.3,3.2-9.5,4.8-15.6,4.8
			c-5.9,0-11.2-1.4-15.7-4.2c-4.5-2.8-8-6.7-10.5-11.6c-2.5-5-3.7-10.7-3.7-17.3c0-6.6,1.2-12.3,3.7-17.2c2.5-4.9,6-8.8,10.5-11.6
			c4.5-2.8,9.7-4.2,15.7-4.2c6.1,0,11.3,1.6,15.6,4.8c4.3,3.2,7.3,7.2,9,12.1l18.5-8.9c-1.7-5-4.6-9.5-8.6-13.5
			c-4.1-4.1-9-7.3-14.8-9.7c-5.8-2.4-12.4-3.6-19.7-3.6s-14,1.3-20.2,3.8c-6.2,2.6-11.6,6.2-16.1,10.8c-4.6,4.6-8.2,10.1-10.7,16.5
			c-2.5,6.4-3.8,13.3-3.8,20.7c0,7.5,1.3,14.4,3.9,20.7c2.6,6.3,6.1,11.8,10.7,16.5c4.6,4.7,10,8.3,16.1,10.9
			c6.2,2.6,12.9,3.9,20.1,3.9c7.3,0,13.9-1.2,19.7-3.6c5.8-2.4,10.7-5.7,14.8-9.7C678.5,612.1,681.4,607.6,683.1,602.6z"/>
		<path id="XMLID_108_" class="st6" d="M747.6,597.2c0,2.8-0.6,5.3-1.7,7.4c-1.1,2.1-2.7,3.8-4.7,4.9c-2,1.2-4.4,1.8-7.1,1.8
			c-2.6,0-5-0.6-7-1.8c-2.1-1.2-3.7-2.8-4.8-4.9c-1.1-2.1-1.7-4.6-1.7-7.4v-43.1h-20.3v44.7c0,6.1,1.1,11.5,3.2,16.1
			c2.2,4.6,5.3,8.2,9.5,10.7c4.2,2.6,9.3,3.8,15.2,3.8c5.1,0,9.6-1.1,13.4-3.2c3.1-1.7,5.5-4.3,7.2-7.5v9.1h18.9v-73.8h-20.3V597.2z
			"/>
		<path id="XMLID_107_" class="st6" d="M815.1,556.6c-2.8,1.7-5.1,4.5-6.7,8.5v-11h-18.9v73.8h20.3v-39.7c0-5.5,1.5-9.8,4.6-12.8
			c3.1-3,7.1-4.5,12-4.5h6.4v-17.6h-4.3C823.2,553.3,818.8,554.4,815.1,556.6z"/>
		<path id="XMLID_104_" class="st6" d="M909.5,563c-3.1-3.3-6.9-5.9-11.4-7.8c-4.5-1.8-9.7-2.8-15.5-2.8c-7,0-13.3,1.7-18.9,5
			c-5.6,3.3-10,7.9-13.3,13.7c-3.3,5.8-4.9,12.3-4.9,19.7c0,7.1,1.6,13.6,4.7,19.5c3.2,5.9,7.6,10.5,13.4,14
			c5.8,3.5,12.6,5.2,20.4,5.2c5,0,9.7-0.7,13.9-2.2c4.2-1.5,7.9-3.6,11-6.3c3.1-2.7,5.4-5.9,6.8-9.5l-16.2-7.7
			c-1.4,2.5-3.4,4.5-6,5.9c-2.6,1.4-5.7,2.2-9.3,2.2c-4,0-7.3-0.9-10.1-2.6c-2.8-1.8-4.9-4.2-6.2-7.4c-0.7-1.6-1.2-3.4-1.4-5.3h51.7
			c0.4-1,0.6-2.2,0.7-3.6c0.1-1.4,0.2-2.8,0.2-4.3c0-5.1-0.8-9.9-2.4-14.3C915,570.2,912.6,566.3,909.5,563z M873.5,571.3
			c2.5-1.7,5.5-2.6,9.1-2.6c3.6,0,6.6,0.9,9.1,2.6c2.5,1.8,4.2,4.1,5.2,7.2c0.3,1,0.5,2.2,0.6,3.3H867c0.2-1,0.5-2,0.9-3
			C869.1,575.5,871,573,873.5,571.3z"/>
		<polygon id="XMLID_103_" class="st6" points="331.6,671.2 319,671.2 319,660.7 316.5,660.7 316.5,684.1 319,684.1 319,673.6 
			331.6,673.6 331.6,684.1 334.1,684.1 334.1,660.7 331.6,660.7 		"/>
		<path id="XMLID_100_" class="st6" d="M366.8,663.7c-1.1-1.1-2.3-1.9-3.7-2.5c-1.4-0.6-2.9-0.9-4.6-0.9s-3.2,0.3-4.6,0.9
			c-1.4,0.6-2.7,1.4-3.7,2.5c-1.1,1.1-1.9,2.4-2.5,3.8c-0.6,1.5-0.9,3.1-0.9,4.9c0,1.8,0.3,3.4,0.9,4.9c0.6,1.5,1.5,2.8,2.5,3.8
			c1.1,1.1,2.3,1.9,3.7,2.5c1.4,0.6,2.9,0.9,4.6,0.9s3.2-0.3,4.6-0.9c1.4-0.6,2.7-1.4,3.7-2.5c1.1-1.1,1.9-2.4,2.5-3.8
			c0.6-1.5,0.9-3.1,0.9-4.9c0-1.8-0.3-3.4-0.9-4.9C368.7,666.1,367.9,664.8,366.8,663.7z M367.1,676.2c-0.5,1.2-1.1,2.2-1.9,3.1
			c-0.8,0.9-1.8,1.6-2.9,2.1c-1.1,0.5-2.4,0.8-3.7,0.8c-1.3,0-2.6-0.3-3.7-0.8c-1.1-0.5-2.1-1.2-2.9-2.1c-0.8-0.9-1.5-1.9-1.9-3.1
			c-0.5-1.2-0.7-2.4-0.7-3.8c0-1.3,0.2-2.6,0.7-3.8c0.5-1.2,1.1-2.2,1.9-3.1c0.8-0.9,1.8-1.6,2.9-2.1c1.1-0.5,2.4-0.8,3.7-0.8
			s2.6,0.3,3.7,0.8c1.1,0.5,2.1,1.2,2.9,2.1c0.8,0.9,1.5,1.9,1.9,3.1c0.5,1.2,0.7,2.4,0.7,3.8C367.7,673.7,367.5,675,367.1,676.2z"
			/>
		<polygon id="XMLID_99_" class="st6" points="393.3,672.6 385.1,660.7 382.9,660.7 382.9,684.1 385.4,684.1 385.4,665.5 
			393.3,676.9 393.4,676.9 401.2,665.6 401.2,684.1 403.7,684.1 403.7,660.7 401.5,660.7 		"/>
		<polygon id="XMLID_98_" class="st6" points="417.1,684.1 432.2,684.1 432.2,681.8 419.6,681.8 419.6,673.5 431.6,673.5 
			431.6,671.2 419.6,671.2 419.6,663 432.2,663 432.2,660.7 417.1,660.7 		"/>
		<polygon id="XMLID_97_" class="st6" points="472.1,671.2 459.5,671.2 459.5,660.7 457,660.7 457,684.1 459.5,684.1 459.5,673.6 
			472.1,673.6 472.1,684.1 474.6,684.1 474.6,660.7 472.1,660.7 		"/>
		<polygon id="XMLID_96_" class="st6" points="488,684.1 503.1,684.1 503.1,681.8 490.5,681.8 490.5,673.5 502.5,673.5 502.5,671.2 
			490.5,671.2 490.5,663 503.1,663 503.1,660.7 488,660.7 		"/>
		<path id="XMLID_93_" class="st6" d="M521.2,660.7l-8.6,23.5h2.6l2-5.7h10.5l2,5.7h2.6l-8.6-23.5H521.2z M518.1,676l4.4-12.4
			l4.4,12.4H518.1z"/>
		<polygon id="XMLID_92_" class="st6" points="545.9,660.7 543.4,660.7 543.4,684.1 556.3,684.1 556.3,681.8 545.9,681.8 		"/>
		<polygon id="XMLID_91_" class="st6" points="563.6,663 570.1,663 570.1,684.1 572.6,684.1 572.6,663 579.1,663 579.1,660.7 
			563.6,660.7 		"/>
		<polygon id="XMLID_90_" class="st6" points="605.1,671.2 592.5,671.2 592.5,660.7 590,660.7 590,684.1 592.5,684.1 592.5,673.6 
			605.1,673.6 605.1,684.1 607.6,684.1 607.6,660.7 605.1,660.7 		"/>
		<path id="XMLID_89_" class="st6" d="M639.9,663.9c1.3-0.8,2.9-1.2,4.6-1.2c1.7,0,3.1,0.4,4.3,1.2c1.2,0.8,2.1,1.9,2.7,3.3l2.4-1
			c-0.4-1-1-1.9-1.9-2.8c-0.9-0.9-1.9-1.6-3.2-2.2c-1.3-0.6-2.7-0.9-4.3-0.9c-1.7,0-3.2,0.3-4.6,0.9c-1.4,0.6-2.6,1.4-3.6,2.5
			c-1,1.1-1.8,2.4-2.4,3.8c-0.6,1.5-0.8,3.1-0.8,4.9c0,1.8,0.3,3.4,0.8,4.9c0.6,1.5,1.4,2.7,2.4,3.8s2.2,1.9,3.6,2.5
			c1.4,0.6,2.9,0.9,4.6,0.9c1.6,0,3-0.3,4.3-0.9c1.3-0.6,2.3-1.3,3.2-2.2c0.9-0.9,1.5-1.8,1.9-2.8l-2.4-1c-0.6,1.4-1.5,2.5-2.7,3.3
			c-1.2,0.8-2.7,1.2-4.3,1.2c-1.7,0-3.3-0.4-4.6-1.2c-1.3-0.8-2.4-1.9-3.2-3.4c-0.8-1.5-1.1-3.2-1.1-5.1c0-2,0.4-3.7,1.1-5.1
			C637.5,665.8,638.6,664.7,639.9,663.9z"/>
		<path id="XMLID_86_" class="st6" d="M672.3,660.7l-8.6,23.5h2.6l2-5.7H679l2,5.7h2.6l-8.6-23.5H672.3z M669.3,676l4.4-12.4
			l4.4,12.4H669.3z"/>
		<path id="XMLID_83_" class="st6" d="M709,672.1c0.9-1.2,1.3-2.6,1.3-4.3c0-1.4-0.3-2.7-1-3.8c-0.6-1.1-1.5-1.9-2.7-2.5
			c-1.2-0.6-2.5-0.9-4-0.9h-8.1v23.5h2.5V675h5.7l5.2,9.1h3l-5.5-9.6C706.9,674.1,708.1,673.3,709,672.1z M702.7,672.6h-5.7V663h5.7
			c1,0,1.9,0.2,2.6,0.6c0.8,0.4,1.3,0.9,1.8,1.7c0.4,0.7,0.6,1.6,0.6,2.6c0,1-0.2,1.8-0.6,2.6c-0.4,0.7-1,1.3-1.8,1.7
			C704.6,672.4,703.8,672.6,702.7,672.6z"/>
		<polygon id="XMLID_82_" class="st6" points="722.5,684.1 737.7,684.1 737.7,681.8 725.1,681.8 725.1,673.5 737,673.5 737,671.2 
			725.1,671.2 725.1,663 737.7,663 737.7,660.7 722.5,660.7 		"/>
		<polygon id="XMLID_81_" class="st6" points="912.6,532.4 916.7,532.4 916.7,545.7 919.2,545.7 919.2,532.4 923.2,532.4 
			923.2,530.3 912.6,530.3 		"/>
		<polygon id="XMLID_80_" class="st6" points="938.7,530.3 933.6,537.5 928.3,530.3 926.1,530.3 926.1,545.7 928.5,545.7 
			928.5,534.5 933.4,541.3 933.6,541.3 938.6,534.6 938.6,545.7 941,545.7 941,530.3 		"/>
	</g>
</g>
</svg>
