<svg id="Logo" xmlns="http://www.w3.org/2000/svg" xmlns:xlink="http://www.w3.org/1999/xlink" width="144.788" height="160.658" viewBox="0 0 144.788 160.658">
  <defs>
    <clipPath id="clip-path">
      <rect id="Rectangle_2" data-name="Rectangle 2" width="144.788" height="160.658" fill="none"/>
    </clipPath>
  </defs>
  <g id="Group_1" data-name="Group 1" clip-path="url(#clip-path)">
    <path id="Path_1" data-name="Path 1" d="M304.653,23.449c4.7,3.247,8.394,6.776,10.648,11.481,6.622,13.823,4.526,26.787-4.14,39-6.756,9.524-16.132,15.9-26.173,21.382-7.461,4.073-15.145,7.737-22.6,11.823-8.116,4.449-15.822,9.457-20.052,18.316-.316-1.736.437-3.16,1.1-4.563,3.142-6.615,8.262-11.535,13.988-15.848,6.313-4.756,13.107-8.794,19.841-12.922,9.654-5.918,18.874-12.416,25.749-21.635,5.846-7.839,8.344-16.536,5.876-26.224A19.21,19.21,0,0,0,301.7,33.1c-6.846-4.988-14.116-3.954-21.288-.985a38.824,38.824,0,0,0-13.64,9.816c-1.512,1.642-2.43,1.892-4.093.148-3.956-4.149-4.052-4.072.086-8.241a45.482,45.482,0,0,1,22.5-12.879,37.848,37.848,0,0,1,7.771-.515c.589-.011,1.431.045,1.708-.3.547-.672-.274-1.235-.613-1.79-3.625-5.922-2.553-12.506,2.656-16.188a12.279,12.279,0,0,1,13.287-.409,11.037,11.037,0,0,1,5.226,11.4,11,11,0,0,1-8.527,9.747c-.5.136-1,.255-2.122.542" transform="translate(-174.412 -0.001)" fill="#1aa9a0"/>
    <path id="Path_2" data-name="Path 2" d="M111.9,105.51c-2.653-10.368.471-18.718,6.849-26.219-.51-.976-1.415-.609-2.1-.7-6.857-.915-11.275-7.221-9.935-14.242,1.208-6.329,7.65-10.34,14.258-8.876a11.6,11.6,0,0,1,8.609,14.584c-.746,2.661-.732,2.713,1.906,2.016,8.841-2.336,16.632-.186,23.6,5.475a59.827,59.827,0,0,1,8.01,7.4c.956,1.119,1.138,1.9.225,3.132-3.6,4.872-4,4.856-7.958.4a43.478,43.478,0,0,0-9.734-8.547c-8.77-5.352-20.485-1.47-26.26,5.066a26.56,26.56,0,0,0-6.925,18.3,11.664,11.664,0,0,1-.063,1.3,4.86,4.86,0,0,1-.476.919" transform="translate(-76.654 -39.719)" fill="#d74b7f"/>
    <path id="Path_3" data-name="Path 3" d="M161.838,277.261c-.2-9.1-4.574-15.962-10.64-22.265-5.509-5.724-11.149-11.475-14.011-19.2a31.539,31.539,0,0,1-.963-19.927c.218-.778.187-1.733,1.406-2.443,0,2.438-.084,4.651.016,6.856a35.186,35.186,0,0,0,5.41,17.45c.359.569.633,1.405,1.4,1.406.929,0,.806-.973,1.046-1.573,1.539-3.844,4.741-5.682,8.668-4.959,3.7.682,6.007,3.671,5.937,7.7a7.322,7.322,0,0,1-6.486,7.269c-.64.108-1.56-.216-1.786.666-.189.739.519,1.233.978,1.735a53.544,53.544,0,0,1,7.038,9.33,22.007,22.007,0,0,1,1.984,17.959" transform="translate(-97.224 -153.65)" fill="#31ade0"/>
    <path id="Path_4" data-name="Path 4" d="M217.509,207.556l2.978-2.865c.092-.089.179-.181.275-.267,1.524-1.361,2.971-1.5,4.907-.463.172.092.339.191.5.3a11.388,11.388,0,0,0,6.936,1.812c3.69-.11,7.392.027,11.086-.041,2.747-.051,5.491-.117,8.239-.1,1.191.009,1.229.036,1.247.907.025,1.226.025,1.227-1.624,1.23-6.048.01-12.1.061-18.143.006a22.176,22.176,0,0,1-5.608-.475,18.223,18.223,0,0,1-3.659-1.36c-1.252-.653-1.838-.586-2.722.348-.99,1.046-1.945,2.108-2.922,3.161a3.072,3.072,0,0,1-.564.524,2.706,2.706,0,0,1-2.306.56,1.548,1.548,0,0,1-1.159-1.488c-.306-2.486-.533-4.975-.6-7.472-.069-2.742-.22-5.483-.338-8.224-.006-.129.03-.269-.146-.393-.283.055-.284.25-.334.408-1.671,5.28-3.327,10.563-5.015,15.841-.528,1.65-1.119,3.29-1.733,4.924a4.566,4.566,0,0,1-.8,1.27,1.968,1.968,0,0,1-3.063-.074,12.034,12.034,0,0,1-1.336-3.26c-.351-.97-.622-1.955-.943-2.932-.239-.727-.692-.852-1.59-.446-.441.2-.876.408-1.307.62a13.2,13.2,0,0,1-5.925,1.146c-4.246-.007-8.492-.017-12.737.011-.924.006-1.228-.214-1.2-.889.047-1.257,0-1.259,1.736-1.259,4.093,0,8.187-.044,12.279.019a8.442,8.442,0,0,0,5.057-1.424,7.208,7.208,0,0,1,2.023-1.021c1.625-.48,2.728-.189,3.6.939a6.529,6.529,0,0,1,.885,1.965,18.459,18.459,0,0,1,.894,3.143.809.809,0,0,0,.364.639c.357-1.231.669-2.4,1.035-3.557q1.6-5.051,3.228-10.1c1-3.08,2.028-6.155,3.047-9.231a4.8,4.8,0,0,1,1.159-1.952,1.854,1.854,0,0,1,1.136-.494,1.361,1.361,0,0,1,1.6.71,3.793,3.793,0,0,1,.478,1.628c.131,2.339.356,4.674.431,7.017.1,3.254.323,6.507.348,9.763a1.3,1.3,0,0,0,.308.893" transform="translate(-128.073 -135)" fill="#ec1c24"/>
    <text id="home_Cure" data-name="home Cure" transform="translate(0 149.19)" fill="#d74b7f" font-size="29" font-family="Oswald-SemiBold, Oswald" font-weight="600"><tspan x="0" y="0">home Cure</tspan></text>
  </g>
</svg>
