<?xml version="1.0" encoding="UTF-8"?>
<svg width="700pt" height="700pt" version="1.1" viewBox="0 0 700 700"
    xmlns="http://www.w3.org/2000/svg"
    xmlns:xlink="http://www.w3.org/1999/xlink">
    <defs>
        <symbol id="o" overflow="visible">
            <path d="m29.312-1.75c-1.5117 0.78125-3.0898 1.3711-4.7344 1.7656-1.6367 0.40625-3.3398 0.60938-5.1094 0.60938-5.3125 0-9.5273-1.4844-12.641-4.4531-3.1055-2.9688-4.6562-7-4.6562-12.094s1.5508-9.125 4.6562-12.094c3.1133-2.9688 7.3281-4.4531 12.641-4.4531 1.7695 0 3.4727 0.19922 5.1094 0.59375 1.6445 0.39844 3.2227 0.99219 4.7344 1.7812v6.5938c-1.5312-1.0391-3.0391-1.8008-4.5156-2.2812-1.4805-0.48828-3.0391-0.73438-4.6719-0.73438-2.9375 0-5.2461 0.94531-6.9219 2.8281-1.6797 1.875-2.5156 4.4648-2.5156 7.7656 0 3.293 0.83594 5.8828 2.5156 7.7656 1.6758 1.875 3.9844 2.8125 6.9219 2.8125 1.6328 0 3.1914-0.23828 4.6719-0.71875 1.4766-0.48828 2.9844-1.2539 4.5156-2.2969z"/>
        </symbol>
        <symbol id="j" overflow="visible">
            <path d="m21.453-17.406c-0.67969-0.3125-1.3516-0.53906-2.0156-0.6875-0.65625-0.15625-1.3203-0.23438-1.9844-0.23438-1.9688 0-3.4844 0.63281-4.5469 1.8906-1.0547 1.2617-1.5781 3.0703-1.5781 5.4219v11.016h-7.6562v-23.922h7.6562v3.9219c0.97656-1.5625 2.1016-2.7031 3.375-3.4219 1.2812-0.71875 2.8125-1.0781 4.5938-1.0781 0.25 0 0.52344 0.011719 0.82812 0.03125 0.30078 0.023438 0.73438 0.070312 1.2969 0.14062z"/>
        </symbol>
        <symbol id="b" overflow="visible">
            <path d="m27.562-12.031v2.1875h-17.891c0.1875 1.793 0.83203 3.1367 1.9375 4.0312 1.1133 0.89844 2.6719 1.3438 4.6719 1.3438 1.6016 0 3.25-0.23438 4.9375-0.70312 1.6875-0.47656 3.4219-1.2031 5.2031-2.1719v5.8906c-1.8047 0.6875-3.6094 1.2031-5.4219 1.5469-1.8125 0.35156-3.6211 0.53125-5.4219 0.53125-4.3359 0-7.7031-1.0977-10.109-3.2969-2.3984-2.207-3.5938-5.2969-3.5938-9.2656 0-3.9062 1.1758-6.9727 3.5312-9.2031 2.3633-2.2383 5.6094-3.3594 9.7344-3.3594 3.7578 0 6.7695 1.1367 9.0312 3.4062 2.2578 2.2617 3.3906 5.2812 3.3906 9.0625zm-7.8594-2.5312c0-1.457-0.42969-2.6289-1.2812-3.5156-0.84375-0.89453-1.9492-1.3438-3.3125-1.3438-1.4922 0-2.6992 0.41797-3.625 1.25-0.91797 0.83594-1.4922 2.0391-1.7188 3.6094z"/>
        </symbol>
        <symbol id="a" overflow="visible">
            <path d="m14.391-10.766c-1.5938 0-2.793 0.27344-3.5938 0.8125-0.80469 0.54297-1.2031 1.3398-1.2031 2.3906 0 0.96875 0.32031 1.7305 0.96875 2.2812 0.64453 0.54297 1.5469 0.8125 2.7031 0.8125 1.4375 0 2.6445-0.51562 3.625-1.5469 0.98828-1.0312 1.4844-2.3203 1.4844-3.875v-0.875zm11.688-2.8906v13.656h-7.7031v-3.5469c-1.0312 1.4492-2.1875 2.5078-3.4688 3.1719s-2.8398 1-4.6719 1c-2.4805 0-4.4961-0.72266-6.0469-2.1719-1.543-1.4453-2.3125-3.3203-2.3125-5.625 0-2.8125 0.96094-4.8672 2.8906-6.1719 1.9375-1.3125 4.9688-1.9688 9.0938-1.9688h4.5156v-0.60938c0-1.207-0.48047-2.0938-1.4375-2.6562-0.94922-0.5625-2.4375-0.84375-4.4688-0.84375-1.6367 0-3.1562 0.16797-4.5625 0.5-1.4062 0.32422-2.7188 0.8125-3.9375 1.4688v-5.8281c1.6445-0.40625 3.2891-0.70703 4.9375-0.90625 1.6562-0.20703 3.3047-0.3125 4.9531-0.3125 4.3203 0 7.4375 0.85547 9.3438 2.5625 1.9141 1.6992 2.875 4.4609 2.875 8.2812z"/>
        </symbol>
        <symbol id="i" overflow="visible">
            <path d="m12.031-30.719v6.7969h7.875v5.4688h-7.875v10.141c0 1.1172 0.21875 1.8711 0.65625 2.2656 0.4375 0.38672 1.3125 0.57812 2.625 0.57812h3.9375v5.4688h-6.5625c-3.0234 0-5.1641-0.62891-6.4219-1.8906-1.2617-1.2578-1.8906-3.3984-1.8906-6.4219v-10.141h-3.7969v-5.4688h3.7969v-6.7969z"/>
        </symbol>
        <symbol id="h" overflow="visible">
            <path d="m19.953-20.422v-12.812h7.6875v33.234h-7.6875v-3.4531c-1.0547 1.4062-2.2148 2.4375-3.4844 3.0938-1.2734 0.65625-2.7422 0.98438-4.4062 0.98438-2.9492 0-5.3711-1.1719-7.2656-3.5156-1.8867-2.3438-2.8281-5.3594-2.8281-9.0469s0.94141-6.7031 2.8281-9.0469c1.8945-2.3438 4.3164-3.5156 7.2656-3.5156 1.6562 0 3.1172 0.33594 4.3906 1 1.2812 0.65625 2.4453 1.6836 3.5 3.0781zm-5.0469 15.484c1.6445 0 2.8945-0.59766 3.75-1.7969 0.86328-1.1953 1.2969-2.9297 1.2969-5.2031 0-2.2812-0.43359-4.0195-1.2969-5.2188-0.85547-1.1953-2.1055-1.7969-3.75-1.7969-1.625 0-2.8711 0.60156-3.7344 1.7969-0.85547 1.1992-1.2812 2.9375-1.2812 5.2188 0 2.2734 0.42578 4.0078 1.2812 5.2031 0.86328 1.1992 2.1094 1.7969 3.7344 1.7969z"/>
        </symbol>
        <symbol id="g" overflow="visible">
            <path d="m16.406-4.9375c1.6328 0 2.8828-0.59766 3.75-1.7969 0.86328-1.1953 1.2969-2.9297 1.2969-5.2031 0-2.2812-0.43359-4.0195-1.2969-5.2188-0.86719-1.1953-2.1172-1.7969-3.75-1.7969-1.6367 0-2.8906 0.60547-3.7656 1.8125-0.875 1.1992-1.3125 2.9336-1.3125 5.2031 0 2.2617 0.4375 3.9961 1.3125 5.2031 0.875 1.1992 2.1289 1.7969 3.7656 1.7969zm-5.0781-15.484c1.0508-1.3945 2.2188-2.4219 3.5-3.0781 1.2812-0.66406 2.7539-1 4.4219-1 2.9453 0 5.3672 1.1719 7.2656 3.5156 1.8945 2.3438 2.8438 5.3594 2.8438 9.0469s-0.94922 6.7031-2.8438 9.0469c-1.8984 2.3438-4.3203 3.5156-7.2656 3.5156-1.668 0-3.1406-0.33594-4.4219-1s-2.4492-1.6914-3.5-3.0781v3.4531h-7.6562v-33.234h7.6562z"/>
        </symbol>
        <symbol id="f" overflow="visible">
            <path d="m0.53125-23.922h7.6562l6.4219 16.234 5.4688-16.234h7.6562l-10.062 26.188c-1.0117 2.6641-2.1953 4.5234-3.5469 5.5781-1.3438 1.0625-3.1211 1.5938-5.3281 1.5938h-4.4219v-5.0156h2.3906c1.3008 0 2.2422-0.21094 2.8281-0.625 0.59375-0.40625 1.0547-1.1484 1.3906-2.2188l0.20312-0.65625z"/>
        </symbol>
        <symbol id="e" overflow="visible">
            <path d="m0.21875-31.891h29.391v6.2188h-10.578v25.672h-8.2188v-25.672h-10.594z"/>
        </symbol>
        <symbol id="n" overflow="visible">
            <path d="m3.6719-23.922h7.6562v23.922h-7.6562zm0-9.3125h7.6562v6.2344h-7.6562z"/>
        </symbol>
        <symbol id="d" overflow="visible">
            <path d="m11.328-3.4531v12.547h-7.6562v-33.016h7.6562v3.5c1.0508-1.3945 2.2188-2.4219 3.5-3.0781 1.2812-0.66406 2.7539-1 4.4219-1 2.9453 0 5.3672 1.1719 7.2656 3.5156 1.8945 2.3438 2.8438 5.3594 2.8438 9.0469s-0.94922 6.7031-2.8438 9.0469c-1.8984 2.3438-4.3203 3.5156-7.2656 3.5156-1.668 0-3.1406-0.33594-4.4219-1s-2.4492-1.6914-3.5-3.0781zm5.0781-15.5c-1.6367 0-2.8906 0.60547-3.7656 1.8125-0.875 1.1992-1.3125 2.9336-1.3125 5.2031 0 2.2617 0.4375 3.9961 1.3125 5.2031 0.875 1.1992 2.1289 1.7969 3.7656 1.7969 1.6328 0 2.8828-0.59766 3.75-1.7969 0.86328-1.1953 1.2969-2.9297 1.2969-5.2031 0-2.2812-0.43359-4.0195-1.2969-5.2188-0.86719-1.1953-2.1172-1.7969-3.75-1.7969z"/>
        </symbol>
        <symbol id="m" overflow="visible">
            <path d="m1.5312-23.922h7.4375l4.0156 16.484 4.0469-16.484h6.375l4.0156 16.312 4.0469-16.312h7.4375l-6.3125 23.922h-8.3438l-4.0469-16.453-4.0156 16.453h-8.3438z"/>
        </symbol>
        <symbol id="l" overflow="visible">
            <path d="m27.734-14.562v14.562h-7.7031v-11.156c0-2.0625-0.046875-3.4844-0.14062-4.2656-0.085937-0.78125-0.24219-1.3594-0.46875-1.7344-0.30469-0.5-0.71094-0.88281-1.2188-1.1562-0.51172-0.28125-1.0938-0.42188-1.75-0.42188-1.5938 0-2.8516 0.61719-3.7656 1.8438-0.90625 1.2305-1.3594 2.9375-1.3594 5.125v11.766h-7.6562v-23.922h7.6562v3.5c1.1445-1.3945 2.3633-2.4219 3.6562-3.0781 1.3008-0.66406 2.7383-1 4.3125-1 2.7578 0 4.8516 0.85156 6.2812 2.5469 1.4375 1.6875 2.1562 4.1523 2.1562 7.3906z"/>
        </symbol>
        <symbol id="k" overflow="visible">
            <path d="m26.219-30.891v6.75c-1.7617-0.78125-3.4766-1.3672-5.1406-1.7656-1.668-0.40625-3.2422-0.60938-4.7188-0.60938-1.9609 0-3.4141 0.27344-4.3594 0.8125-0.9375 0.54297-1.4062 1.3867-1.4062 2.5312 0 0.85547 0.31641 1.5234 0.95312 2 0.63281 0.46875 1.7852 0.875 3.4531 1.2188l3.5 0.70312c3.5391 0.71875 6.0625 1.8047 7.5625 3.25 1.5 1.4492 2.25 3.5117 2.25 6.1875 0 3.5234-1.0469 6.1406-3.1406 7.8594-2.0859 1.7188-5.2734 2.5781-9.5625 2.5781-2.0234 0-4.0547-0.19531-6.0938-0.57812-2.0312-0.38281-4.0625-0.95703-6.0938-1.7188v-6.9375c2.0312 1.0859 3.9922 1.9023 5.8906 2.4531 1.9062 0.54297 3.7422 0.8125 5.5156 0.8125 1.7891 0 3.1602-0.29688 4.1094-0.89062 0.95703-0.60156 1.4375-1.457 1.4375-2.5625 0-1-0.32422-1.7695-0.96875-2.3125-0.64844-0.53906-1.9375-1.0234-3.875-1.4531l-3.1875-0.70312c-3.1875-0.6875-5.5234-1.7734-7-3.2656-1.4688-1.5-2.2031-3.5156-2.2031-6.0469 0-3.1758 1.0234-5.6172 3.0781-7.3281 2.0508-1.707 5-2.5625 8.8438-2.5625 1.75 0 3.5508 0.13281 5.4062 0.39062 1.8516 0.26172 3.7695 0.65625 5.75 1.1875z"/>
        </symbol>
        <symbol id="c" overflow="visible">
            <path d="m15.062-19.031c-1.6992 0-2.9961 0.60938-3.8906 1.8281-0.88672 1.2188-1.3281 2.9766-1.3281 5.2656 0 2.293 0.44141 4.0469 1.3281 5.2656 0.89453 1.2188 2.1914 1.8281 3.8906 1.8281 1.6641 0 2.9375-0.60938 3.8125-1.8281 0.88281-1.2188 1.3281-2.9727 1.3281-5.2656 0-2.2891-0.44531-4.0469-1.3281-5.2656-0.875-1.2188-2.1484-1.8281-3.8125-1.8281zm0-5.4688c4.1133 0 7.3281 1.1094 9.6406 3.3281s3.4688 5.2969 3.4688 9.2344c0 3.9297-1.1562 7.0078-3.4688 9.2344-2.3125 2.2188-5.5273 3.3281-9.6406 3.3281-4.1367 0-7.3711-1.1094-9.7031-3.3281-2.3242-2.2266-3.4844-5.3047-3.4844-9.2344 0-3.9375 1.1602-7.0156 3.4844-9.2344 2.332-2.2188 5.5664-3.3281 9.7031-3.3281z"/>
        </symbol>
    </defs>
    <g>
        <path d="m219.09 514.23c-19.07-45.91-30.758-94.547-34.633-144.11 6.9766-6.2812 11.547-14.797 12.93-24.078 1.3828-9.2852-0.51172-18.762-5.3516-26.805-1.1797-1.9688-2.2031-4.0156-3.1953-6.0742l0.003906 0.003906c6.3828-9.7539 17.242-15.641 28.898-15.672h88.508c2.3203 0 4.5469-0.92188 6.1875-2.5625s2.5625-3.8672 2.5625-6.1875v-26.25h8.75c15.406-0.019531 30.242-5.8398 41.559-16.297 11.312-10.457 18.277-24.793 19.508-40.148l22.539-15.023c3.8789-2.6016 5.0352-7.7891 2.625-11.789l-17.219-28.742-0.042969-0.078125c9.2461-5.3477 16.664-13.355 21.297-22.977 6.0586-12.598 6.793-27.105 2.0391-40.25-7.0352-19.945-19.961-37.277-37.07-49.703-17.113-12.426-37.594-19.359-58.734-19.879-0.39453 0-0.76172-0.13281-1.1562-0.13281l-47.844 0.003906c-33.211 0.015625-64.754 14.555-86.336 39.793-2.9922 3.6836-2.5039 9.0781 1.1016 12.164 3.6055 3.0859 9.0117 2.7344 12.188-0.78906 18.266-21.348 44.953-33.645 73.047-33.652h47.82c2.3555-0.011719 4.5781 1.1133 5.9648 3.0195 1.3867 1.9062 1.7695 4.3672 1.0352 6.6055-1.9492 5.8477-6.8086 10.246-12.82 11.602-19.426 4.3477-36.785 15.203-49.199 30.766-12.414 15.566-19.133 34.902-19.051 54.809v43.43c-0.035156 12.285-6.4766 23.66-16.992 30.012-7.1133 4.2656-15.512 5.8711-23.699 4.5195-8.1836-1.3477-15.625-5.5586-20.992-11.887-5.3711-6.3242-8.3164-14.352-8.3164-22.645v-53.98c0.011719-12 2.2812-23.891 6.6836-35.051 0.85938-2.1641 0.82031-4.5781-0.10938-6.7148-0.92578-2.1328-2.6641-3.8086-4.8281-4.6562-2.168-0.85156-4.582-0.80078-6.7109 0.13281-2.1328 0.93359-3.8008 2.6797-4.6445 4.8477-5.2031 13.199-7.8828 27.254-7.8906 41.441v43.75c-6.9609 0-13.641 2.7656-18.562 7.6875s-7.6875 11.602-7.6875 18.562c0.007812 15.449 5.8789 30.32 16.434 41.605-15.809 17.867-21.852 42.352-16.172 65.52 0.97656 3.8945 4.4766 6.625 8.4883 6.625 0.71875 0.003906 1.4375-0.085938 2.1367-0.26172 4.6875-1.1758 7.5352-5.9258 6.3594-10.613-4.375-17.844 0.41797-36.691 12.785-50.277 1.8086 1.082 3.6758 2.0664 5.5898 2.957-6.3516 24.215-2.6875 49.969 10.168 71.453 4.082 6.8086 4.3672 15.246 0.75 22.316-3.6172 7.0703-10.625 11.773-18.539 12.445-12.488 1.0234-24.902-2.7227-34.742-10.48-9.8398-7.7578-16.379-18.953-18.301-31.336-3.8633-24.93 1.8203-50.395 15.906-71.32 2.6992-4.0117 1.6328-9.4492-2.3789-12.145-4.0117-2.6992-9.4492-1.6328-12.145 2.3789-16.543 24.57-23.215 54.477-18.68 83.746 2.4805 15.801 10.512 30.203 22.652 40.617 12.141 10.414 27.598 16.16 43.594 16.207 1.8281 0 3.6836-0.070312 5.5469-0.22656v-0.003907c2.4023-0.22266 4.7812-0.65625 7.1055-1.3008 4.5391 48.766 16.395 96.57 35.164 141.81l6.7305 16.152c1.3594 3.2617 4.5508 5.3867 8.0859 5.3828 1.1523 0.003906 2.293-0.22656 3.3594-0.67188 2.1445-0.89453 3.8438-2.6016 4.7305-4.7461 0.88281-2.1484 0.87891-4.5586-0.015625-6.6992zm180.49-421.16c3.168 8.7578 2.6875 18.422-1.3398 26.816-2.7227 5.5469-6.8438 10.289-11.953 13.766-0.8125-3.6641-1.2422-7.4023-1.2852-11.156-0.10156-32.645-15.383-63.387-41.344-83.176v-0.16797c26.094 8.1602 46.812 28.141 55.922 53.918zm-162.57 137.17c15.773-9.5234 25.438-26.59 25.488-45.016v-43.43c-0.066406-15.941 5.3203-31.426 15.262-43.887 9.9453-12.461 23.848-21.148 39.41-24.625 8.9688-2.0664 16.773-7.5742 21.723-15.336 18.18 16.543 28.559 39.969 28.605 64.547-0.003906 13.035 3.543 25.828 10.254 37.004l12.949 21.594-19.312 12.871h0.003906c-2.4336 1.625-3.8945 4.3555-3.8945 7.2812-0.003906 6.0273-1.2695 11.988-3.7109 17.5h-2.9766 0.003906c-4.25 0.007812-8.418-1.1719-12.031-3.4102-3.6133-2.2383-6.5273-5.4414-8.4102-9.25-2.1602-4.3281-7.418-6.082-11.742-3.9219-4.3242 2.1602-6.082 7.418-3.9219 11.742 5.2891 10.617 15.008 18.352 26.539 21.113-7.7305 6.418-17.453 9.9453-27.5 9.9766h-17.5c-3.6367 0.011719-7.2031-0.99609-10.297-2.9062s-5.5859-4.6523-7.2031-7.9102l-0.91797-1.8477v0.003906c-2.1602-4.3281-7.418-6.082-11.742-3.9219-4.3281 2.1602-6.082 7.418-3.9219 11.742l0.92578 1.8477h0.003906c4.8555 9.7617 13.797 16.859 24.402 19.383v18.609h-78.75v-43.023c6.4531-1.0898 12.645-3.375 18.262-6.7305zm-78.984-37.625h-0.003906c2.1875 16.164 11.863 30.352 26.113 38.293 5.2695 2.9688 11.012 5.0078 16.973 6.0273-0.33203 4.5195-4.0781 8.0234-8.6094 8.0586-11.598-0.015625-22.719-4.6289-30.922-12.828-8.1992-8.2031-12.812-19.324-12.828-30.922 0.050781-2.3867 1.0625-4.6523 2.8125-6.2773 1.7461-1.625 4.0781-2.4727 6.4609-2.3516zm34.473 69.879c2.9883-0.027344 5.9492-0.57422 8.75-1.6094v21.875c-6.9375 2.3281-13.305 6.0977-18.68 11.059-1.9336-10.641-1.5781-21.574 1.0391-32.066 2.9414 0.46094 5.9141 0.70703 8.8906 0.74219z"/>
        <path d="m321.19 137.44c3.0039-2.9961 7.0703-4.6797 11.312-4.6797s8.3086 1.6836 11.312 4.6797c3.4336 3.3164 8.8906 3.2656 12.266-0.10938s3.4258-8.832 0.10938-12.266c-6.2891-6.2734-14.805-9.7969-23.688-9.7969s-17.398 3.5234-23.688 9.7969c-3.3164 3.4336-3.2656 8.8906 0.10938 12.266s8.832 3.4258 12.266 0.10938z"/>
        <path d="m201.25 201.25c2.3203 0 4.5469-0.92188 6.1875-2.5625 12.891-12.816 20.117-30.262 20.062-48.441v-39.207c0-8.418 2.6484-16.617 7.5703-23.445 4.918-6.8242 11.859-11.93 19.844-14.594l10.352-3.4492v0.003907c4.5898-1.5273 7.0742-6.4883 5.5469-11.078-1.5273-4.5898-6.4883-7.0742-11.078-5.5469l-10.359 3.4727c-11.469 3.8203-21.441 11.152-28.508 20.961-7.0664 9.8047-10.871 21.586-10.867 33.676v39.207c0.039062 13.535-5.3398 26.523-14.938 36.066-2.5 2.5039-3.25 6.2656-1.8945 9.5352 1.3555 3.2695 4.543 5.4023 8.082 5.4023z"/>
        <path d="m455 430.64v-7.1406c0.003906-9.418-3.7227-18.457-10.359-25.137-6.6328-6.6836-15.645-10.473-25.062-10.535-9.418-0.066406-18.48 3.5977-25.207 10.191l-7.2188 7.0703-0.57031-0.17578 5.25-15.883v0.003906c5.1953-15.57 4.918-32.445-0.77734-47.84-5.6992-15.395-16.477-28.379-30.555-36.816l-14.77-8.8633c-4.1484-2.4844-9.5234-1.1367-12.004 3.0078-2.4844 4.1484-1.1367 9.5195 3.0078 12.004l14.789 8.8477c10.664 6.3945 18.832 16.234 23.148 27.898 4.3164 11.664 4.5234 24.449 0.58984 36.246l-8.3125 24.953v0.003906c-0.80078 2.4023-0.51953 5.0391 0.76953 7.2188 1.1133 1.7773 2.8359 3.0859 4.8477 3.6836l-39.254 38.43-18.883-49.672-17.551-43.898v-0.003906c-1.7969-4.4883-6.8945-6.668-11.383-4.8711-4.4922 1.7969-6.6719 6.8945-4.875 11.383l13.293 33.25-52.047 6.5-14.988-37.484c-1.7969-4.4883-6.8945-6.6719-11.383-4.8711-4.4922 1.7969-6.6719 6.8906-4.875 11.383l17.684 44.16 52.5 113.75c2.0234 4.3867 7.2227 6.3047 11.613 4.2773 2.1055-0.97266 3.7383-2.7422 4.543-4.918 0.80078-2.1758 0.70703-4.5859-0.26563-6.6914l-47.488-102.9 51.309-6.4141 21.191 55.746h0.003907c1.0508 2.7578 3.418 4.8008 6.3008 5.4336 2.8828 0.63281 5.8867-0.23047 7.9961-2.293l70.613-69.125c3.4258-3.3516 8.0352-5.2109 12.828-5.1797 4.7891 0.03125 9.375 1.957 12.754 5.3516 3.3828 3.3945 5.2852 7.9844 5.2969 12.777v7.1211c0.003906 0.46484-0.23047 0.89453-0.61719 1.1484-0.39062 0.25-0.87891 0.28516-1.3008 0.09375-3.8672-1.7461-8.2109-2.1328-12.328-1.0938-4.1133 1.0352-7.7578 3.4375-10.332 6.8086l-69.852 90.836c-1.4883 1.832-2.168 4.1836-1.8945 6.5273 0.27344 2.3438 1.4805 4.4766 3.3516 5.9141 1.8672 1.4414 4.2383 2.0664 6.5742 1.7305 2.3359-0.33203 4.4375-1.5938 5.8281-3.5l69.816-90.746c20.086 20.445 30.273 48.617 27.914 77.176l-0.62109 7.5078c-0.20312 2.3125 0.52344 4.6094 2.0156 6.3867 1.4961 1.7773 3.6328 2.8906 5.9453 3.0898h0.73438c4.5469-0.007812 8.3281-3.4922 8.707-8.0234l0.62109-7.5078c2.4414-29.281-6.3438-58.395-24.578-81.438 4.7031-3.5078 7.4844-9.0234 7.5156-14.891z"/>
        <path d="m540.83 271.25c-9.2188-0.027344-18.066 3.6289-24.578 10.16-6.6289-6.3242-15.438-9.8516-24.598-9.8516s-17.969 3.5273-24.594 9.8516c-6.5234 6.5312-10.188 15.383-10.188 24.613 0 9.2305 3.6641 18.082 10.188 24.613l43.008 43.008-0.003906-0.003906c3.418 3.418 8.957 3.418 12.375 0l43.008-43.008-0.003906 0.003907c6.5078-6.5312 10.156-15.379 10.148-24.598-0.007813-9.2188-3.6719-18.062-10.188-24.582-6.5156-6.5234-15.355-10.191-24.574-10.207zm12.25 47.059-36.828 36.82-36.82-36.82c-4.375-4.3789-6.0859-10.758-4.4844-16.734 1.6016-5.9805 6.2734-10.648 12.25-12.25 5.9805-1.6016 12.359 0.10547 16.734 4.4844l6.125 6.125c3.418 3.4141 8.957 3.4141 12.371 0l6.125-6.125c3.3008-3.1562 7.6875-4.9141 12.25-4.9141 4.5664 0 8.9531 1.7578 12.25 4.9141 3.25 3.2461 5.0781 7.6523 5.082 12.246 0 4.5938-1.8203 9-5.0625 12.254z"/>
        <path d="m596.52 261.94c-2.6719-4.0312-8.1016-5.1328-12.133-2.4648-4.0312 2.6719-5.1328 8.1016-2.4648 12.133 13.09 19.766 16.562 44.379 9.4531 66.992-7.1055 22.613-24.039 40.816-46.078 49.539-1.9336 0.76953-3.5273 2.2031-4.5 4.043-6.9219 13.156-16.996 24.391-29.32 32.699 2.5742-6.9492 4.4336-14.145 5.5469-21.473 0.36328-2.3867-0.27734-4.8164-1.7695-6.7148-1.4883-1.9023-3.6992-3.0977-6.1055-3.3125-24.207-2.1445-46.066-15.348-59.234-35.773-13.164-20.426-16.164-45.785-8.125-68.719 8.0391-22.934 26.215-40.871 49.25-48.605 23.039-7.7344 48.359-4.3984 68.605 9.0391 1.9336 1.3984 4.3555 1.9492 6.707 1.5195 2.3477-0.42578 4.418-1.7969 5.7344-3.7891 1.3125-1.9922 1.7578-4.4375 1.2266-6.7656-0.53125-2.3281-1.9922-4.3359-4.043-5.5625-24.043-15.918-53.957-20.219-81.516-11.719-27.555 8.5039-49.848 28.914-60.738 55.613-10.895 26.699-9.2422 56.879 4.5039 82.23 13.742 25.352 38.129 43.207 66.449 48.648-2.8633 11.387-7.9531 22.09-14.973 31.5-2.4883 3.2422-2.4023 7.7773 0.21094 10.922 2.6133 3.1445 7.0586 4.0586 10.699 2.2031l15.227-7.6133c19.195-9.5625 35.082-24.656 45.613-43.34 26.051-11.344 45.75-33.629 53.812-60.875s3.6602-56.664-12.023-80.355z"/>

    </g>
</svg>
