<svg id="Group_73" data-name="Group 73" xmlns="http://www.w3.org/2000/svg" xmlns:xlink="http://www.w3.org/1999/xlink" width="37.935" height="60.733" viewBox="0 0 37.935 60.733">
  <defs>
    <clipPath id="clip-path">
      <rect id="Rectangle_74" data-name="Rectangle 74" width="37.935" height="60.733" fill="#1aa9a0"/>
    </clipPath>
  </defs>
  <g id="Group_72" data-name="Group 72" clip-path="url(#clip-path)">
    <path id="Path_106" data-name="Path 106" d="M.588,60.733A1.353,1.353,0,0,1,0,59.471C.015,55-.005,50.539.014,46.073A5.578,5.578,0,0,1,3.628,40.6c2.7-1.17,5.407-2.309,8.1-3.475.406-.175.779-.425,1.167-.64-.013-.051-.025-.1-.037-.156-.706-.2-1.415-.393-2.116-.608A23.37,23.37,0,0,1,3.58,32.141a2.8,2.8,0,0,1-1.077-3.4,26.568,26.568,0,0,0,1.3-7.976c.035-1.975-.031-3.957.1-5.924A14.745,14.745,0,0,1,8.155,5.5a1.425,1.425,0,0,0,.387-.909A2.891,2.891,0,0,1,10.09,1.912a11.377,11.377,0,0,1,4.1-1.454,24.077,24.077,0,0,1,11.6.537A10.8,10.8,0,0,1,28.308,2.27,2.3,2.3,0,0,1,29.366,4.46a1.387,1.387,0,0,0,.474,1.134,15.161,15.161,0,0,1,4.288,10.663c.029,2.192.032,4.386.133,6.575a21.769,21.769,0,0,0,1.133,5.794,2.848,2.848,0,0,1-1.129,3.582A24.346,24.346,0,0,1,25.6,36.177c-.172.043-.341.09-.691.182a9.457,9.457,0,0,0,1.078.663c2.75,1.194,5.51,2.37,8.265,3.553a5.627,5.627,0,0,1,3.671,5.555c.013,4.446,0,8.893.012,13.339a1.361,1.361,0,0,1-.587,1.263h-.593a1.228,1.228,0,0,1-.616-1.235c.015-4.463.01-8.927.008-13.391a3.881,3.881,0,0,0-2.507-3.859q-3.477-1.5-6.96-2.982l-1.2-.509c-1.783,2.553-3.543,5.054-5.272,7.577a2.043,2.043,0,0,0-.338,1.082q-.035,5.984-.007,11.969a1.514,1.514,0,0,1-.542,1.347h-.711a1.5,1.5,0,0,1-.542-1.347q.021-6.014-.006-12.028a1.847,1.847,0,0,0-.3-.975c-1.653-2.409-3.333-4.8-5.007-7.194-.1-.141-.214-.27-.332-.417-2.675,1.145-5.311,2.3-7.966,3.4a4.007,4.007,0,0,0-2.674,4.049c.013,4.424,0,8.849.013,13.273a1.232,1.232,0,0,1-.615,1.235ZM11.116,9.4l-.034.132c.446.272.884.558,1.339.814a41.1,41.1,0,0,0,14.467,4.606,3.777,3.777,0,0,1,3.433,3.925c.01,1.166,0,2.332,0,3.5A11.347,11.347,0,0,1,24.953,32.4c-.123.081-.3.207-.307.32-.03.6-.014,1.2-.014,1.812a3.115,3.115,0,0,0,.332-.033A22.823,22.823,0,0,0,33.12,30.84c.766-.555.853-.812.565-1.7a23.733,23.733,0,0,1-1.2-6.144c-.11-2.268-.105-4.542-.138-6.813a13.531,13.531,0,0,0-2.578-7.923c-.091-.127-.2-.239-.374-.439-.013.227-.02.325-.024.422-.037.889-.306,1.15-1.2,1.155-.494,0-.988.008-1.483,0-.622-.013-.979-.33-.991-.859-.012-.551.361-.894,1.005-.915.272-.009.544,0,.886,0,0-1.059.042-2.064-.023-3.062a1.4,1.4,0,0,0-.491-.979,7.582,7.582,0,0,0-1.959-.939A22.111,22.111,0,0,0,14.4,2.246a18.272,18.272,0,0,0-3.279,1.136c-.307.125-.7.5-.722.786-.083,1.133-.034,2.275-.034,3.449H22.283a3.215,3.215,0,0,1,.591.018.839.839,0,0,1,.767.9.822.822,0,0,1-.816.85,5.148,5.148,0,0,1-.534.008H11.116ZM28.5,23.656h-.73c-1.481,0-2.962-.022-4.442.007a4.018,4.018,0,0,1-3.219-1.345,5.1,5.1,0,0,0-.421-.416.99.99,0,0,0-1.436,0c-.192.17-.368.358-.547.542a3.794,3.794,0,0,1-2.857,1.211c-.908-.006-1.817,0-2.725,0H9.435a9.317,9.317,0,0,0,4.489,7.216,9.146,9.146,0,0,0,10.085,0A9.313,9.313,0,0,0,28.5,23.656m-19-1.779c1.594,0,3.193-.041,4.788.015a3.005,3.005,0,0,0,2.521-1.03,3.315,3.315,0,0,1,1.3-.884,2.6,2.6,0,0,1,3,.832,3.013,3.013,0,0,0,2.613,1.081c1.3-.063,2.606-.015,3.909-.015h.925c0-1.067.013-2.05,0-3.034a1.975,1.975,0,0,0-1.873-2.123A45.292,45.292,0,0,1,13,12.677a.946.946,0,0,0-.711,0,4.255,4.255,0,0,0-2.751,3.452C9.351,18,9.494,19.9,9.494,21.877m3.825,12.682a9.489,9.489,0,0,1,.008-1.1,1.214,1.214,0,0,0-.654-1.287,10.753,10.753,0,0,1-4.966-8.407c-.162-2.319-.12-4.658-.065-6.986A6.342,6.342,0,0,1,10.1,11.921c.193-.16.4-.306.678-.52-1.49-.72-2.606-1.649-2.228-3.535A1.459,1.459,0,0,0,8.2,8.2a13.563,13.563,0,0,0-2.282,5.028A26.411,26.411,0,0,0,5.6,19.368a30.286,30.286,0,0,1-1.422,9.972,1.077,1.077,0,0,0,.478,1.382c.9.566,1.777,1.18,2.71,1.688a21.507,21.507,0,0,0,5.955,2.15M18.968,44.98l4.864-6.967a13.046,13.046,0,0,1-.913-2.247,12.321,12.321,0,0,1-.032-2.339,11.775,11.775,0,0,1-7.792.027c.027,1.629.162,3.2-1.119,4.373l4.993,7.153" transform="translate(0 0)" fill="#1aa9a0"/>
    <path id="Path_107" data-name="Path 107" d="M14.615,76.793c.641,0,1.25-.006,1.86,0a1.789,1.789,0,0,1,1.881,1.792c.031.967.03,1.937,0,2.9a1.8,1.8,0,0,1-1.864,1.822q-2.815.027-5.632,0A1.815,1.815,0,0,1,9,81.544c-.046-.986-.043-1.977,0-2.964a1.819,1.819,0,0,1,1.9-1.786c.608-.008,1.216,0,1.833,0,.178-.746-.261-1.871.962-1.866,1.2.005.762,1.1.925,1.866m1.94,1.813H10.8V81.5h5.751Z" transform="translate(-3.27 -27.335)" fill="#1aa9a0"/>
    <path id="Path_108" data-name="Path 108" d="M22.762,29.878a4.872,4.872,0,0,1-.039.588.8.8,0,0,1-.81.711.758.758,0,0,1-.87-.628,4.978,4.978,0,0,1-.024-1.347.783.783,0,0,1,.865-.72.816.816,0,0,1,.852.806c.018.195,0,.393,0,.589h.023" transform="translate(-7.656 -10.39)" fill="#1aa9a0"/>
    <path id="Path_109" data-name="Path 109" d="M37.754,29.884a4.054,4.054,0,0,1-.094.7.8.8,0,0,1-.907.588.765.765,0,0,1-.762-.69,6.146,6.146,0,0,1-.026-1.119.877.877,0,0,1,.838-.894.893.893,0,0,1,.911.827,4.547,4.547,0,0,1,0,.589Z" transform="translate(-13.116 -10.384)" fill="#1aa9a0"/>
  </g>
</svg>
