<svg id="Group_54" data-name="Group 54" xmlns="http://www.w3.org/2000/svg" xmlns:xlink="http://www.w3.org/1999/xlink" width="56.374" height="36.358" viewBox="0 0 56.374 36.358">
  <defs>
    <clipPath id="clip-path">
      <rect id="Rectangle_64" data-name="Rectangle 64" width="56.374" height="36.358" fill="#1aa9a0"/>
    </clipPath>
  </defs>
  <g id="Group_53" data-name="Group 53" clip-path="url(#clip-path)">
    <path id="Path_56" data-name="Path 56" d="M28.512,23.756A33.532,33.532,0,0,1,52,33.577c1.341,1.308,2.657,2.642,3.976,3.973.5.5.544.98.077,1.441a71.9,71.9,0,0,1-7.842,7.3,32.792,32.792,0,0,1-16.353,6.333A33.363,33.363,0,0,1,4.036,42.706C2.822,41.512,1.623,40.3.422,39.094c-.508-.511-.571-.992-.115-1.439a78.167,78.167,0,0,1,7.431-7,34.1,34.1,0,0,1,20.773-6.9M2.286,38.364c1.125,1.13,2.245,2.283,3.394,3.406a31.367,31.367,0,0,0,20.286,9.166,31.5,31.5,0,0,0,20.54-5.656,51.085,51.085,0,0,0,6.913-6.216,9.2,9.2,0,0,1,.81-.644c-1.362-1.374-2.554-2.668-3.843-3.859-8.595-7.945-18.635-10.6-30.02-7.985C12.951,28.283,7.214,32.684,2.286,38.364" transform="translate(0 -20.152)" fill="#1aa9a0"/>
    <path id="Path_57" data-name="Path 57" d="M9.286,12.409,8.035,11.18a38.125,38.125,0,0,1,53.94,0l-1.282,1.2A35.828,35.828,0,0,0,34.983,1.822a35.879,35.879,0,0,0-25.7,10.588" transform="translate(-6.816 0)" fill="#1aa9a0"/>
    <path id="Path_58" data-name="Path 58" d="M185.965,169.971v-1.815a36.411,36.411,0,0,0,25.7-10.646l1.2,1.371a38.117,38.117,0,0,1-26.892,11.09" transform="translate(-157.751 -133.613)" fill="#1aa9a0"/>
    <path id="Path_59" data-name="Path 59" d="M119.763,41.849a11.81,11.81,0,1,1-11.831,11.735,11.836,11.836,0,0,1,11.831-11.735m9.977,11.813a10,10,0,1,0-9.956,9.993,10.006,10.006,0,0,0,9.956-9.993" transform="translate(-91.557 -35.5)" fill="#1aa9a0"/>
    <path id="Path_60" data-name="Path 60" d="M143.636,84.052c.055-.431.086-.866.168-1.291.2-1.024.739-1.264,1.669-.761a1.776,1.776,0,0,0,2.67-1.148,2.4,2.4,0,0,0-.222-1.35c-.416-.9-.228-1.414.718-1.637a6.36,6.36,0,1,1-5,6.188m1.913-.045A4.362,4.362,0,0,0,148,88.131a4.473,4.473,0,0,0,5.184-.847,4.549,4.549,0,0,0,.851-5.238,4.333,4.333,0,0,0-4.062-2.457,3.718,3.718,0,0,1-4.422,4.417" transform="translate(-121.844 -65.911)" fill="#1aa9a0"/>
  </g>
</svg>
