<svg xmlns="http://www.w3.org/2000/svg" xmlns:xlink="http://www.w3.org/1999/xlink" width="50.319" height="50.33" viewBox="0 0 50.319 50.33">
  <defs>
    <clipPath id="clip-path">
      <rect id="Rectangle_67" data-name="Rectangle 67" width="50.319" height="50.33" fill="#1aa9a0"/>
    </clipPath>
  </defs>
  <g id="Group_58" data-name="Group 58" clip-path="url(#clip-path)">
    <path id="Path_64" data-name="Path 64" d="M187.626,8.167a11.814,11.814,0,0,1-1.095,1.53c-2.224,2.269-4.475,4.51-6.73,6.747a4.149,4.149,0,0,0-1.167,4.345,6.955,6.955,0,1,1-13.626,2.539c-.018-.194-.042-.388-.066-.609-.458-.066-.91-.111-1.354-.2a6.954,6.954,0,0,1,.343-13.678,6.8,6.8,0,0,1,2.965.169,4.036,4.036,0,0,0,4.261-1.138q3.519-3.532,7.05-7.052a2.171,2.171,0,0,1,3.394,0c1.634,1.631,3.281,3.249,4.887,4.907a13.28,13.28,0,0,1,1.136,1.56ZM179.826,2c-.092.087-.236.216-.372.352-2.236,2.234-4.491,4.449-6.7,6.71a6.183,6.183,0,0,1-6.521,1.814,4.972,4.972,0,0,0-2.686,9.571,9.657,9.657,0,0,0,2.373.179A.974.974,0,0,1,167,21.718c0,.147-.021.294-.035.441a4.983,4.983,0,1,0,9.778-.8,6.124,6.124,0,0,1,1.76-6.4c2.277-2.239,4.52-4.512,6.777-6.771.136-.136.264-.281.363-.386L179.826,2" transform="translate(-137.307 0)" fill="#1aa9a0"/>
    <path id="Path_65" data-name="Path 65" d="M7.28,187.576a12.647,12.647,0,0,1-1.523-1.1c-1.669-1.619-3.3-3.277-4.941-4.923a2.171,2.171,0,0,1,0-3.395c2.314-2.317,4.62-4.643,6.951-6.943a4.244,4.244,0,0,0,1.218-4.467,6.959,6.959,0,1,1,13.6-2.876c.051.321.066.648.1.988.547.087,1.085.133,1.6.262a6.949,6.949,0,1,1-3.31,13.5,4.361,4.361,0,0,0-4.712,1.306.94.94,0,0,1-1.2.247.9.9,0,0,1-.513-1.018,1.077,1.077,0,0,1,.245-.519,5.969,5.969,0,0,1,6.322-1.986,5,5,0,1,0,1.226-9.754c-.212.016-.424.046-.636.054a.963.963,0,0,1-1.08-1.087,9.416,9.416,0,0,0-.076-2,4.975,4.975,0,1,0-9.662,2.367,6.116,6.116,0,0,1-1.761,6.4c-2.276,2.24-4.52,4.511-6.777,6.77-.136.136-.264.281-.345.368l5.9,5.9a8.382,8.382,0,0,1,.638-.778.952.952,0,0,1,1.4-.05.989.989,0,0,1-.032,1.445,4.148,4.148,0,0,1-1.746,1.294Z" transform="translate(0 -137.246)" fill="#1aa9a0"/>
    <path id="Path_66" data-name="Path 66" d="M66.195,136.919c.18,0,.36-.01.54,0a.982.982,0,0,1,.957.932.959.959,0,0,1-.832,1,6.75,6.75,0,0,1-1.466-.02.947.947,0,0,1-.813-1.009.977.977,0,0,1,.976-.912c.212-.011.425,0,.638,0v.011" transform="translate(-56.102 -118.934)" fill="#1aa9a0"/>
    <path id="Path_67" data-name="Path 67" d="M138.493,66.642c0,.212.016.426,0,.637a.934.934,0,0,1-.845.87.884.884,0,0,1-1.034-.691,6.488,6.488,0,0,1-.026-1.652.887.887,0,0,1,1.008-.731.937.937,0,0,1,.889.881c.02.227,0,.457,0,.686h.008" transform="translate(-118.62 -56.531)" fill="#1aa9a0"/>
    <path id="Path_68" data-name="Path 68" d="M96.482,95.309a3.768,3.768,0,0,1,.71.342,6.3,6.3,0,0,1,.765.757.974.974,0,0,1-.027,1.334.95.95,0,0,1-1.33.057,7.4,7.4,0,0,1-.792-.8.822.822,0,0,1-.1-1.044,3.882,3.882,0,0,1,.769-.647" transform="translate(-83.022 -82.798)" fill="#1aa9a0"/>
    <path id="Path_69" data-name="Path 69" d="M87.851,336.7a.971.971,0,1,1,0,1.941.97.97,0,0,1,0-1.941" transform="translate(-75.483 -292.501)" fill="#1aa9a0"/>
  </g>
</svg>
