<svg id="Group_67" data-name="Group 67" xmlns="http://www.w3.org/2000/svg" xmlns:xlink="http://www.w3.org/1999/xlink" width="52.433" height="48.034" viewBox="0 0 52.433 48.034">
  <defs>
    <clipPath id="clip-path">
      <rect id="Rectangle_71" data-name="Rectangle 71" width="52.433" height="48.034" fill="#1aa9a0"/>
    </clipPath>
  </defs>
  <g id="Group_66" data-name="Group 66" clip-path="url(#clip-path)">
    <path id="Path_84" data-name="Path 84" d="M0,25.455a7.238,7.238,0,0,1,1.221-2.66,5.291,5.291,0,0,1,3.321-1.936.723.723,0,0,0,.679-.61A21.625,21.625,0,0,1,12.589,9.135a20.452,20.452,0,0,1,5.035-3,1.038,1.038,0,0,0,.636-.654A8.5,8.5,0,0,1,31.752,2.061a8.807,8.807,0,0,1,2.481,3.513,1.1,1.1,0,0,0,.549.522,21.324,21.324,0,0,1,10.549,9.59,39.889,39.889,0,0,1,1.9,4.619.7.7,0,0,0,.618.545,5.415,5.415,0,0,1,.164,10.675.917.917,0,0,0-.835.76A21.6,21.6,0,0,1,35.2,46.105a20.783,20.783,0,0,1-9.742,1.911,21.4,21.4,0,0,1-13.873-5.624A21.275,21.275,0,0,1,5.243,32.249a.846.846,0,0,0-.758-.71A5.343,5.343,0,0,1,.1,27.228C.073,27.114.034,27,0,26.889V25.455M17.641,8.573a.344.344,0,0,0-.077,0,.933.933,0,0,0-.141.055c-6.771,3.655-10.451,9.332-10.834,17a18.221,18.221,0,0,0,4.355,12.884,19.151,19.151,0,0,0,18.739,7.019,17.946,17.946,0,0,0,9.682-4.76c5.533-5.219,7.693-11.629,5.947-19.044-1.727-7.337-6.428-12.115-13.627-14.4a1.466,1.466,0,0,0-.547-.091A3.837,3.837,0,0,0,28.427,8.6a3.977,3.977,0,0,0,.678,5.9,1.21,1.21,0,0,1,.626,1.241,1.161,1.161,0,0,1-.981.917,8.374,8.374,0,0,1-8.989-2.609c-.34-.374-.621-.8-.942-1.221-.117.066-.22.121-.32.179a15.141,15.141,0,0,0-3.84,3.189,1.2,1.2,0,0,1-1.112.491,1.025,1.025,0,0,1-.858-.709,1.13,1.13,0,0,1,.317-1.213,17.729,17.729,0,0,1,4.568-3.746c.2-.112.432-.176.364-.518-.125-.63-.2-1.271-.3-1.934M31.437,5a6.289,6.289,0,0,0-7.8-2.279,6.356,6.356,0,0,0-3.4,7.911,6.15,6.15,0,0,0,6.09,4.15,6.133,6.133,0,0,1-.373-6.413A6.149,6.149,0,0,1,31.437,5M4.478,29.295v-6.16A3.148,3.148,0,0,0,2.187,26.15a3.2,3.2,0,0,0,2.291,3.144m43.48-6.155V29.3a3.2,3.2,0,0,0,2.285-3.2,3.115,3.115,0,0,0-2.285-2.957" transform="translate(0 0.001)" fill="#1aa9a0"/>
    <path id="Path_85" data-name="Path 85" d="M112.646,188.932a4.438,4.438,0,0,1,4.2,2.871c.295.821.1,1.4-.569,1.662-.611.238-1.152-.085-1.465-.876a2.173,2.173,0,0,0-4.1-.029,3.13,3.13,0,0,1-.212.463,1.033,1.033,0,0,1-1.75.058,1.506,1.506,0,0,1-.127-1.1A4.207,4.207,0,0,1,112,189.012c.249-.05.506-.063.649-.08" transform="translate(-94.636 -164.699)" fill="#1aa9a0"/>
    <path id="Path_86" data-name="Path 86" d="M238.873,188.933a4.375,4.375,0,0,1,4.09,2.928c.273.787.065,1.359-.585,1.608-.595.228-1.152-.092-1.45-.833a2.175,2.175,0,0,0-3.112-1.246,2.262,2.262,0,0,0-1.045,1.269,1.093,1.093,0,1,1-2.081-.639,4.4,4.4,0,0,1,4.184-3.087" transform="translate(-204.532 -164.699)" fill="#1aa9a0"/>
    <path id="Path_87" data-name="Path 87" d="M175.691,278.3a4.349,4.349,0,0,1-4.15-2.99,1.1,1.1,0,0,1,.6-1.526c.606-.227,1.143.06,1.442.771a2.188,2.188,0,0,0,4.2-.015,1.069,1.069,0,0,1,1.445-.75,1.109,1.109,0,0,1,.573,1.538,4.343,4.343,0,0,1-4.111,2.972" transform="translate(-149.457 -238.598)" fill="#1aa9a0"/>
    <path id="Path_88" data-name="Path 88" d="M85.249,133.834a1.1,1.1,0,0,1,1.065,1.084,1.138,1.138,0,0,1-1.144,1.124,1.123,1.123,0,0,1-1.042-1.114,1.144,1.144,0,0,1,1.121-1.094" transform="translate(-73.337 -116.667)" fill="#1aa9a0"/>
  </g>
</svg>
