<svg xmlns="http://www.w3.org/2000/svg" xmlns:xlink="http://www.w3.org/1999/xlink" width="79.23" height="75.37" viewBox="0 0 79.23 75.37">
  <defs>
    <clipPath id="clip-path">
      <rect id="Rectangle_62" data-name="Rectangle 62" width="79.23" height="75.37" fill="#1aa9a0"/>
    </clipPath>
  </defs>
  <g id="Group_50" data-name="Group 50" clip-path="url(#clip-path)">
    <path id="Path_52" data-name="Path 52" d="M0,26.4H2.635v-.962c0-5.26.028-10.521-.01-15.781A6.725,6.725,0,0,1,7.693,2.842a1.163,1.163,0,0,0,.637-.57,3.971,3.971,0,0,1,7.55,1.956,3.921,3.921,0,0,1-3.791,3.691A3.712,3.712,0,0,1,8.5,5.936c-.259-.458-.494-.493-.914-.283A3.746,3.746,0,0,0,5.3,9.071c-.05,5.7-.019,11.4-.016,17.1a.97.97,0,0,0,.085.221H9.3c-.336,4.136.41,7.842,3.729,10.6a11.186,11.186,0,0,0,7.59,2.573,11.047,11.047,0,0,0,8.648-3.935c2.244-2.664,2.622-5.837,2.4-9.209h2.671c0-.308,0-.554,0-.8Q34.3,17.608,34.264,9.6a3.979,3.979,0,0,0-2.531-4.037,1.051,1.051,0,0,0-.22-.048,12.829,12.829,0,0,1-1.426,1.562,3.871,3.871,0,0,1-5.625-.951A3.938,3.938,0,0,1,25.719.6,3.971,3.971,0,0,1,31.24,2.164c.141.268.383.615.637.673A6.771,6.771,0,0,1,36.94,9.824c-.044,5.208.018,10.417.035,15.626,0,.28,0,.561,0,.927h2.569a18.49,18.49,0,0,1-3.3,12.943,19.345,19.345,0,0,1-10.376,7.271.947.947,0,0,0-.812,1.108,27.1,27.1,0,0,1-.175,4.161,3.809,3.809,0,0,1-3.327,3.556.615.615,0,0,0-.405.421c-.278,5.927,1.4,11.059,6.453,14.56a12.94,12.94,0,0,0,17.628-2.569,16.045,16.045,0,0,0,3.633-10.59c0-8.38-.032-16.761.014-25.141A11.663,11.663,0,0,1,55,21.365a10.7,10.7,0,0,1,14.521,4.192,13.119,13.119,0,0,1,1.787,6.712c.006.694,0,1.387,0,2.142a9.26,9.26,0,0,1,6.848,4.909,8.926,8.926,0,0,1,.864,6.151A9.252,9.252,0,1,1,68.629,34.361c.2-2.989-.055-5.867-1.982-8.357-3.881-5.013-11.12-4.253-14.054,1.479A10.235,10.235,0,0,0,51.5,32.252q.02,12.532,0,25.064A18.669,18.669,0,0,1,47,69.829a15.776,15.776,0,0,1-24.054-.053,18.706,18.706,0,0,1-4.459-12.453,6.138,6.138,0,0,1,0-.773c.091-.732-.066-1.112-.939-1.272-1.7-.313-2.838-2-2.96-4.237-.074-1.361-.014-2.73-.014-4.072-1.349-.536-2.68-.949-3.9-1.572-5.892-3-9.6-7.644-10.54-14.308A1.751,1.751,0,0,0,0,30.735Zm2.667,2.672c0,.318-.016.6,0,.873a14.259,14.259,0,0,0,3.1,8.183c4.473,5.546,10.371,7.568,17.276,6.418A16.221,16.221,0,0,0,35.83,34.705a13.4,13.4,0,0,0,1.131-5.621H34.374c-.31,7.334-5.609,12.472-12.732,13.1-6.45.572-14.68-3.6-15.115-13.113ZM69.892,50.139a6.581,6.581,0,1,0,.18-13.161,6.581,6.581,0,0,0-.18,13.161M17.185,47.454c0,1.085-.011,2.136.007,3.186a4.655,4.655,0,0,0,.145.91,1.348,1.348,0,0,0,1.549,1.264c.642.009,1.285-.012,1.927,0a1.245,1.245,0,0,0,1.416-1.13c.161-1.413.2-2.839.287-4.235ZM11.847,5.235a1.267,1.267,0,0,0,1.326-1.291,1.29,1.29,0,0,0-1.255-1.3,1.32,1.32,0,0,0-1.34,1.3,1.3,1.3,0,0,0,1.269,1.285m15.881,0a1.3,1.3,0,0,0,1.3-1.247,1.329,1.329,0,0,0-1.3-1.341,1.3,1.3,0,0,0-1.292,1.262,1.268,1.268,0,0,0,1.29,1.327" transform="translate(0 0)" fill="#1aa9a0"/>
    <path id="Path_53" data-name="Path 53" d="M323.433,199.451a3.915,3.915,0,0,1-3.945-3.913,3.965,3.965,0,0,1,3.969-3.989,4.01,4.01,0,0,1,3.932,3.974,3.97,3.97,0,0,1-3.956,3.928m1.3-3.925a1.339,1.339,0,0,0-1.255-1.315,1.3,1.3,0,0,0-1.346,1.286,1.263,1.263,0,0,0,1.239,1.3,1.3,1.3,0,0,0,1.361-1.27" transform="translate(-253.444 -151.951)" fill="#1aa9a0"/>
  </g>
</svg>
